<svg width="37" height="46" viewBox="0 0 37 46" fill="none" xmlns="http://www.w3.org/2000/svg">
<path d="M2.57812 42.697V2.91008C2.57812 1.85517 3.4333 1 4.4882 1H26.3777L36.2337 10.856V42.697C36.2337 43.7519 35.3785 44.607 34.3236 44.607H4.4882C3.4333 44.607 2.57812 43.7519 2.57812 42.697Z" fill="white"/>
<path d="M26.3777 1H4.4882C3.4333 1 2.57812 1.85517 2.57812 2.91008V42.697C2.57812 43.7519 3.4333 44.607 4.4882 44.607H34.3236C35.3785 44.607 36.2337 43.7519 36.2337 42.697V10.856M26.3777 1L36.2337 10.856M26.3777 1V8.94592C26.3777 10.0008 27.2328 10.856 28.2878 10.856H36.2337" stroke="#D9D9D9" stroke-width="0.88376"/>
<path d="M36.2349 10.856L26.3789 1V8.94592C26.3789 10.0008 27.2341 10.856 28.289 10.856H36.2349Z" fill="#D9D9D9"/>
<path d="M0 22.1445C0 19.3749 2.5786 18.4962 2.5786 18.4962V24.7231C2.5786 24.7231 0 24.7231 0 22.1445Z" fill="#1E1D1B"/>
<path d="M25.3276 16.5862V8.60209C25.3276 7.54719 24.4724 6.69202 23.4175 6.69202H2.4067C2.4067 6.69202 0 6.69202 0 9.17512V22.1445C0 20.1556 1.52277 19.0644 2.2192 18.6693C2.43913 18.5446 2.68971 18.4963 2.94257 18.4963H23.4175C24.4724 18.4963 25.3276 17.6411 25.3276 16.5862Z" fill="#31302E"/>
<path d="M6.50774 15C6.45451 15 6.40927 14.9814 6.37201 14.9441C6.33475 14.9069 6.31612 14.8616 6.31612 14.8084V9.61072C6.31612 9.55217 6.33475 9.50426 6.37201 9.467C6.40927 9.42975 6.45451 9.41112 6.50774 9.41112H8.64748C9.06266 9.41112 9.42461 9.47765 9.73332 9.61072C10.042 9.73846 10.2816 9.93541 10.4519 10.2015C10.6222 10.4624 10.7074 10.7897 10.7074 11.1836C10.7074 11.5828 10.6222 11.9128 10.4519 12.1736C10.2816 12.4291 10.042 12.6207 9.73332 12.7485C9.42461 12.8762 9.06266 12.9401 8.64748 12.9401H7.45785V14.8084C7.45785 14.8616 7.43922 14.9069 7.40196 14.9441C7.37002 14.9814 7.32478 15 7.26623 15H6.50774ZM7.44188 12.0539H8.60756C8.91628 12.0539 9.15314 11.982 9.31815 11.8383C9.48316 11.6893 9.56566 11.471 9.56566 11.1836C9.56566 10.9175 9.48848 10.7045 9.33412 10.5449C9.17976 10.3799 8.93757 10.2974 8.60756 10.2974H7.44188V12.0539ZM12.1699 15C12.1167 15 12.0714 14.9814 12.0342 14.9441C11.9969 14.9069 11.9783 14.8616 11.9783 14.8084V9.61072C11.9783 9.55217 11.9969 9.50426 12.0342 9.467C12.0714 9.42975 12.1167 9.41112 12.1699 9.41112H14.118C14.6556 9.41112 15.0974 9.49362 15.4434 9.65862C15.7947 9.82363 16.0582 10.0685 16.2338 10.3932C16.4148 10.7178 16.508 11.1144 16.5133 11.5828C16.5239 11.817 16.5292 12.0246 16.5292 12.2056C16.5292 12.3865 16.5239 12.5915 16.5133 12.8203C16.5026 13.3154 16.4121 13.7252 16.2418 14.0499C16.0715 14.3693 15.8133 14.6088 15.4674 14.7685C15.1267 14.9228 14.6902 15 14.158 15H12.1699ZM13.0881 14.0818H14.118C14.4161 14.0818 14.6583 14.0392 14.8446 13.9541C15.0309 13.8689 15.1666 13.7332 15.2518 13.5469C15.3423 13.3553 15.3902 13.1051 15.3955 12.7964C15.4008 12.6367 15.4035 12.4983 15.4035 12.3812C15.4088 12.2588 15.4088 12.139 15.4035 12.0219C15.4035 11.8995 15.4008 11.7611 15.3955 11.6067C15.3849 11.1703 15.2757 10.8483 15.0682 10.6407C14.8606 10.4331 14.5306 10.3293 14.0781 10.3293H13.0881V14.0818ZM18.183 15C18.1297 15 18.0845 14.9814 18.0472 14.9441C18.01 14.9069 17.9913 14.8616 17.9913 14.8084V9.61072C17.9913 9.55217 18.01 9.50426 18.0472 9.467C18.0845 9.42975 18.1297 9.41112 18.183 9.41112H21.6481C21.7066 9.41112 21.7545 9.42975 21.7918 9.467C21.829 9.50426 21.8477 9.55217 21.8477 9.61072V10.1696C21.8477 10.2282 21.829 10.2761 21.7918 10.3133C21.7545 10.3453 21.7066 10.3612 21.6481 10.3612H19.0852V11.8782H21.4884C21.5469 11.8782 21.5948 11.8968 21.6321 11.9341C21.6694 11.9714 21.688 12.0193 21.688 12.0778V12.6367C21.688 12.6899 21.6694 12.7352 21.6321 12.7724C21.5948 12.8097 21.5469 12.8283 21.4884 12.8283H19.0852V14.8084C19.0852 14.8616 19.0665 14.9069 19.0293 14.9441C18.992 14.9814 18.9441 15 18.8856 15H18.183Z" fill="white"/>
<rect x="8.44336" y="38.4946" width="14.784" height="2.29209" rx="1.14605" fill="#D9D9D9"/>
<rect x="8.44336" y="33.1465" width="14.784" height="2.29209" rx="1.14605" fill="#D9D9D9"/>
<rect x="8.44336" y="27.7982" width="16.8851" height="2.29209" rx="1.14605" fill="#D9D9D9"/>
<rect x="8.44336" y="22.4501" width="21.9277" height="2.29209" rx="1.14605" fill="#D9D9D9"/>
<path d="M26.211 32.5705L26.211 40.5385C26.211 40.6651 26.3136 40.7678 26.4402 40.7678H30.1196C30.2462 40.7678 30.3488 40.6651 30.3488 40.5385L30.3488 32.5705C30.3488 32.4439 30.4514 32.3413 30.578 32.3413H31.8469C32.0447 32.3413 32.1496 32.1075 32.0181 31.9597L28.4531 27.953C28.3618 27.8504 28.2014 27.8505 28.1103 27.9533L24.5586 31.96C24.4276 32.1079 24.5326 32.3413 24.7302 32.3413H25.9818C26.1084 32.3413 26.211 32.4439 26.211 32.5705Z" fill="#31302E"/>
</svg>
