<svg width="25" height="21" viewBox="0 0 25 21" fill="none" xmlns="http://www.w3.org/2000/svg">
<mask id="path-1-inside-1_16_62" fill="white">
<path d="M8.15908 3.92538C8.1913 3.82799 8.1404 3.72206 8.0422 3.69238C7.52211 3.53517 6.97303 3.50899 6.43993 3.61721C5.84673 3.73764 5.29438 4.0202 4.83871 4.43634C4.38305 4.85248 4.04024 5.38742 3.84494 5.98709C3.66876 6.52807 3.61828 7.10442 3.69652 7.66837C3.71052 7.7693 3.80837 7.83436 3.90812 7.81357C4.00534 7.79332 4.06789 7.69896 4.05463 7.60055C3.98722 7.10048 4.03292 6.58989 4.18909 6.11037C4.36368 5.57426 4.67016 5.09601 5.07753 4.72397C5.4849 4.35194 5.97871 4.09932 6.50904 3.99167C6.97559 3.89695 7.45583 3.91738 7.91205 4.05013C8.01474 4.08001 8.12548 4.02692 8.15908 3.92538Z"/>
</mask>
<path d="M8.15908 3.92538C8.1913 3.82799 8.1404 3.72206 8.0422 3.69238C7.52211 3.53517 6.97303 3.50899 6.43993 3.61721C5.84673 3.73764 5.29438 4.0202 4.83871 4.43634C4.38305 4.85248 4.04024 5.38742 3.84494 5.98709C3.66876 6.52807 3.61828 7.10442 3.69652 7.66837C3.71052 7.7693 3.80837 7.83436 3.90812 7.81357C4.00534 7.79332 4.06789 7.69896 4.05463 7.60055C3.98722 7.10048 4.03292 6.58989 4.18909 6.11037C4.36368 5.57426 4.67016 5.09601 5.07753 4.72397C5.4849 4.35194 5.97871 4.09932 6.50904 3.99167C6.97559 3.89695 7.45583 3.91738 7.91205 4.05013C8.01474 4.08001 8.12548 4.02692 8.15908 3.92538Z" stroke="#31302E" stroke-width="0.707205" mask="url(#path-1-inside-1_16_62)"/>
<path d="M1.31744 7.81977C2.22023 13.2887 10.9928 19.4876 12.3545 20.4204C12.4655 20.4964 12.5981 20.4966 12.7093 20.4209C14.0687 19.4957 22.797 13.3641 23.7459 7.81977C24.6665 4.89065 21.9885 0.706232 17.4693 0.957327C15.4418 0.957327 13.5677 2.79734 12.8455 3.60144C12.6889 3.77579 12.3953 3.76239 12.2515 3.57731C11.6387 2.78838 10.0357 1.07606 7.59407 0.957327C2.82384 0.725349 0.396874 4.80698 1.31744 7.81977Z" stroke="#31302E" stroke-width="0.50357"/>
</svg>
