<svg width="65" height="20" viewBox="0 0 65 20" fill="none" xmlns="http://www.w3.org/2000/svg">
<path d="M5.82812 6.90529C5.82812 7.62108 5.57473 8.21056 5.06793 8.71583C4.56114 9.22109 3.96988 9.47372 3.25192 9.47372C2.91406 9.47372 2.61843 9.43162 2.36504 9.34741L0.633492 8.71583C0.337862 8.58951 0.168931 8.37898 0.168931 8.08424C0.168931 7.87372 0.253396 7.70529 0.380095 7.57898C0.506793 7.45266 0.675724 7.36845 0.886888 7.36845L1.09805 7.41056L2.82959 8.04214C2.95629 8.08424 3.08299 8.08424 3.25192 8.08424C3.58978 8.08424 3.84318 7.95793 4.09658 7.7474C4.30774 7.53687 4.43444 7.24213 4.43444 6.90529C4.43444 6.35792 4.18104 6.02108 3.67425 5.81055L1.68931 5.09476C1.18252 4.92633 0.76019 4.58949 0.464561 4.16844C0.168931 3.74738 0 3.24212 0 2.69475C0 1.97895 0.253396 1.38948 0.760189 0.884211C1.26698 0.378945 1.85824 0.126312 2.5762 0.126312C2.91406 0.126312 3.20969 0.168418 3.46309 0.252629L4.98347 0.8C5.2791 0.926316 5.44803 1.13684 5.44803 1.47369C5.44803 1.64211 5.36356 1.81053 5.23686 1.97895C5.11016 2.10527 4.94123 2.18948 4.73007 2.18948C4.6456 2.18948 4.56114 2.18948 4.51891 2.14737L2.99853 1.6C2.87183 1.5579 2.74513 1.5579 2.5762 1.5579C2.23834 1.5579 1.98494 1.68421 1.73154 1.89474C1.52038 2.10527 1.39368 2.40001 1.39368 2.73685C1.39368 3.28422 1.64708 3.62106 2.15387 3.78949L4.13881 4.50528C4.6456 4.6737 5.06793 5.01054 5.36356 5.4316C5.65919 5.89476 5.82812 6.35792 5.82812 6.90529Z" fill="black"/>
<path d="M15.2881 8.75803C15.2881 8.96856 15.2036 9.13698 15.0769 9.2633C14.9502 9.38961 14.7813 9.47382 14.5701 9.47382C14.359 9.47382 14.19 9.38961 14.0633 9.2633C13.9366 9.13698 13.8944 8.96856 13.8944 8.75803V3.45274L11.4871 7.57908C11.3604 7.83171 11.1493 7.91592 10.8959 7.91592C10.6425 7.91592 10.4313 7.78961 10.3046 7.57908L7.89734 3.45274V8.75803C7.89734 8.96856 7.81287 9.13698 7.68618 9.2633C7.55948 9.38961 7.39055 9.47382 7.17938 9.47382C6.96822 9.47382 6.79929 9.38961 6.67259 9.2633C6.54589 9.13698 6.46143 8.96856 6.46143 8.75803V0.842205C6.46143 0.673783 6.54589 0.505362 6.67259 0.379045C6.79929 0.252729 6.96822 0.168518 7.13715 0.168518C7.39055 0.168518 7.60171 0.294834 7.77064 0.547467L10.8959 5.81065L14.0211 0.547467C14.1478 0.294834 14.359 0.168518 14.6124 0.168518C14.8235 0.168518 14.9924 0.210623 15.1191 0.33694C15.2458 0.463256 15.3303 0.631678 15.3303 0.8001V8.75803H15.2881Z" fill="black"/>
<path d="M22.341 8.75792C22.341 8.96845 22.2565 9.13687 22.1298 9.26318C22.0031 9.3895 21.8342 9.47371 21.623 9.47371C21.2852 9.47371 21.074 9.30529 20.9473 9.01055L20.2716 6.94738H17.7799L17.1464 8.96845C17.0197 9.30529 16.8085 9.51582 16.4706 9.51582C16.2595 9.51582 16.0905 9.43161 15.9638 9.30529C15.8372 9.17897 15.7527 9.01055 15.7527 8.80002L15.7949 8.6316L18.3711 0.715776C18.4556 0.378932 18.709 0.21051 19.0046 0.21051C19.3425 0.21051 19.5536 0.378932 19.6381 0.715776L22.341 8.75792ZM19.8915 5.5158L19.1313 3.11579L18.3289 5.5158H19.8915Z" fill="black"/>
<path d="M28.7183 8.75786C28.7183 8.96839 28.6338 9.13681 28.5071 9.26313C28.3804 9.38944 28.2115 9.47365 28.0003 9.47365C27.7469 9.47365 27.5357 9.34734 27.409 9.13681L25.3396 5.51574H24.2838V8.75786C24.2838 8.96839 24.1993 9.13681 24.0727 9.26313C23.946 9.38944 23.777 9.47365 23.5659 9.47365C23.3547 9.47365 23.1858 9.38944 23.0591 9.26313C22.9324 9.13681 22.8479 8.96839 22.8479 8.75786V1.09467C22.8479 0.884141 22.9324 0.715719 23.0591 0.589403C23.1858 0.463087 23.3547 0.378876 23.5659 0.378876H26.1421C26.86 0.378876 27.4513 0.631508 27.9581 1.13677C28.4649 1.64204 28.7183 2.23152 28.7183 2.94731C28.7183 3.53678 28.5493 4.04205 28.2115 4.50521C27.8736 4.96837 27.409 5.26311 26.86 5.43153L28.5916 8.46312C28.676 8.58944 28.7183 8.67365 28.7183 8.75786ZM27.3246 2.94731C27.3246 2.61046 27.1979 2.35783 26.9867 2.1052C26.7755 1.89467 26.4799 1.76836 26.1421 1.76836H24.2838V4.08416H26.1421C26.4799 4.08416 26.7333 3.95784 26.9867 3.74731C27.1979 3.53678 27.3246 3.28415 27.3246 2.94731Z" fill="black"/>
<path d="M36.0243 1.09467C36.0243 1.3052 35.9398 1.47362 35.8131 1.59993C35.6864 1.72625 35.5175 1.81046 35.3063 1.81046H33.1947V8.79996C33.1947 9.01049 33.1102 9.17892 32.9835 9.30523C32.8568 9.43155 32.6879 9.51576 32.4768 9.51576C32.2656 9.51576 32.0967 9.43155 31.97 9.30523C31.8433 9.17892 31.7588 9.01049 31.7588 8.79996V1.81046H29.6472C29.436 1.81046 29.2671 1.72625 29.1404 1.59993C29.0137 1.47362 28.9292 1.3052 28.9292 1.09467C28.9292 0.884141 29.0137 0.715719 29.1404 0.589403C29.2671 0.463087 29.436 0.378876 29.6472 0.378876H35.2641C35.4753 0.378876 35.6442 0.463087 35.7709 0.589403C35.9821 0.757825 36.0243 0.884141 36.0243 1.09467Z" fill="black"/>
<path d="M7.01064 15.2843C7.01064 16.5054 6.58831 17.558 5.70142 18.4001C4.85677 19.2422 3.80095 19.7054 2.5762 19.7054H0.717957C0.506793 19.7054 0.337862 19.6212 0.211164 19.4948C0.0844655 19.3685 0 19.2001 0 18.9896V11.579C0 11.3685 0.0844655 11.2001 0.211164 11.0737C0.337862 10.9474 0.506793 10.8632 0.717957 10.8632H2.5762C3.80095 10.8632 4.85677 11.2843 5.70142 12.1685C6.54608 13.0106 7.01064 14.0632 7.01064 15.2843ZM5.57472 15.2843C5.57472 14.4422 5.2791 13.7264 4.68784 13.1369C4.09658 12.5474 3.37862 12.2527 2.53397 12.2527H1.35145V18.3159H2.53397C3.37862 18.3159 4.09658 18.0211 4.68784 17.4317C5.32133 16.8422 5.57472 16.1264 5.57472 15.2843Z" fill="black"/>
<path d="M12.9234 18.9896C12.9234 19.2001 12.8389 19.3685 12.7122 19.4948C12.5855 19.6212 12.4166 19.7054 12.2055 19.7054H8.70014C8.48897 19.7054 8.32004 19.6212 8.19334 19.4948C8.06664 19.3685 7.98218 19.2001 7.98218 18.9896V11.579C7.98218 11.3685 8.06664 11.2001 8.19334 11.0737C8.32004 10.9474 8.48897 10.8632 8.70014 10.8632H12.2055C12.4166 10.8632 12.5855 10.9474 12.7122 11.0737C12.8389 11.2001 12.9234 11.3685 12.9234 11.579C12.9234 11.7895 12.8389 11.958 12.7122 12.0843C12.5855 12.2106 12.4166 12.2948 12.2055 12.2948H9.37586V14.6106H11.2341C11.4453 14.6106 11.6142 14.6948 11.7409 14.8211C11.8676 14.9474 11.9521 15.1159 11.9521 15.3264C11.9521 15.5369 11.8676 15.7053 11.7409 15.8317C11.6142 15.958 11.4453 16.0422 11.2341 16.0422H9.37586V18.358H12.2055C12.4166 18.358 12.5855 18.4422 12.7122 18.5685C12.8812 18.6527 12.9234 18.8212 12.9234 18.9896Z" fill="black"/>
<path d="M21.4119 18.0632C21.4119 18.2737 21.3275 18.4422 21.2008 18.5685C20.3139 19.4948 19.2158 19.9158 17.9488 19.9158C16.6396 19.9158 15.5416 19.4527 14.6547 18.5685C13.7678 17.6843 13.3032 16.5474 13.3032 15.2842C13.3032 13.979 13.7678 12.8842 14.6547 12C15.5416 11.1158 16.6396 10.6526 17.9488 10.6526C19.2158 10.6526 20.3139 11.1158 21.2008 12.0421C21.3275 12.1684 21.4119 12.3369 21.4119 12.5053C21.4119 12.7158 21.3275 12.8842 21.2008 13.0106C21.0741 13.1369 20.9051 13.2211 20.694 13.2211C20.525 13.2211 20.3561 13.179 20.2294 13.0527C19.5537 12.4211 18.7935 12.0842 17.9488 12.0842C17.0197 12.0842 16.2595 12.379 15.626 13.0106C14.9925 13.6421 14.6969 14.4 14.6969 15.3264C14.6969 16.2527 14.9925 17.0106 15.626 17.6422C16.2595 18.2737 17.0197 18.5685 17.9488 18.5685C18.7935 18.5685 19.5537 18.2316 20.2294 17.6C20.3561 17.4737 20.525 17.3895 20.694 17.3895C20.9051 17.3895 21.0741 17.4737 21.2008 17.6C21.3697 17.7264 21.4119 17.8948 21.4119 18.0632Z" fill="black"/>
<path d="M31.1257 15.2842C31.1257 16.5895 30.6611 17.6843 29.7742 18.5685C28.8873 19.4527 27.7893 19.9158 26.4801 19.9158C25.1709 19.9158 24.0728 19.4527 23.1859 18.5685C22.299 17.6843 21.8345 16.5474 21.8345 15.2842C21.8345 13.979 22.299 12.8842 23.1859 12C24.0728 11.1158 25.1709 10.6526 26.4801 10.6526C27.7893 10.6526 28.8873 11.1158 29.7742 12C30.7034 12.8842 31.1257 13.979 31.1257 15.2842ZM29.732 15.2842C29.732 14.3579 29.4364 13.6 28.8029 12.9684C28.1694 12.3369 27.4092 12.0421 26.4801 12.0421C25.551 12.0421 24.7908 12.3369 24.1573 12.9684C23.5238 13.6 23.2282 14.3579 23.2282 15.2842C23.2282 16.2106 23.5238 16.9685 24.1573 17.6C24.7908 18.2316 25.551 18.5264 26.4801 18.5264C27.4092 18.5264 28.1694 18.2316 28.8029 17.6C29.4364 16.9685 29.732 16.2106 29.732 15.2842Z" fill="black"/>
<path d="M37.6716 19.2422C37.6716 19.4527 37.5872 19.6212 37.4605 19.7475C37.3338 19.8738 37.1648 19.958 36.9537 19.958C36.7003 19.958 36.4891 19.8317 36.3624 19.6212L34.293 16.0422H33.2372V19.2843C33.2372 19.4948 33.1527 19.6633 33.026 19.7896C32.8993 19.9159 32.7304 20.0001 32.5192 20.0001C32.3081 20.0001 32.1391 19.9159 32.0124 19.7896C31.8857 19.6633 31.8013 19.4948 31.8013 19.2843V11.579C31.8013 11.3685 31.8857 11.2001 32.0124 11.0737C32.1391 10.9474 32.3081 10.8632 32.5192 10.8632H35.0954C35.8134 10.8632 36.4046 11.1159 36.9114 11.6211C37.4182 12.1264 37.6716 12.7159 37.6716 13.4317C37.6716 14.0211 37.5027 14.5264 37.1648 14.9896C36.827 15.4527 36.3624 15.7475 35.8134 15.9159L37.5449 18.9475C37.6294 19.0317 37.6716 19.158 37.6716 19.2422ZM36.2779 13.4317C36.2779 13.0948 36.1512 12.8422 35.9401 12.5895C35.7289 12.379 35.4333 12.2527 35.0954 12.2527H33.2372V14.5685H35.0954C35.4333 14.5685 35.6867 14.4422 35.9401 14.2317C36.1512 14.0211 36.2779 13.7264 36.2779 13.4317Z" fill="black"/>
<path d="M64.616 7.4949C64.616 5.89489 63.3068 4.58962 61.702 4.58962H55.4515V2.94751C55.4515 1.34751 54.1423 0.0422363 52.5374 0.0422363H42.4016C42.3171 0.0422363 42.2327 0.0422365 42.1482 0.0843419C40.7967 0.336975 39.7832 1.51593 39.7832 2.94751V4.67384C38.4317 4.92647 37.5613 6.09901 37.5613 7.53059C37.5613 8.92007 38.4317 10.0559 39.7832 10.3507V16.6739C39.9253 16.9581 40.1128 17.22 40.4506 17.22H40.9234V18.9476C40.9234 19.2844 41.3736 19.315 41.7114 19.315H43.8653C44.2032 19.315 44.128 19.2844 44.128 18.9476V17.22H46.4137V18.9476C46.4137 19.2844 46.6794 19.315 47.0173 19.315H49.1712C49.509 19.315 49.644 19.2844 49.644 18.9476V17.22H50.1724H51.6506V18.9476C51.6506 19.2844 51.9328 19.315 52.2706 19.315H54.4245C54.7624 19.315 54.8973 19.2844 54.8973 18.9476V17.22H58.0699V18.9476C58.0699 19.2844 58.3656 19.3173 58.7034 19.3173L60.9387 19.315C61.2765 19.315 61.2013 19.39 61.2013 19.0531V17.22H61.7267C61.8956 17.22 62.1253 17.0423 62.252 16.9581C62.252 16.6962 62.2932 16.835 62.2932 16.6666L62.252 14.0775C62.7588 13.5722 63.04 12.7404 63.04 11.9825C63.04 11.3088 62.8948 10.8117 62.5147 10.3065C63.5705 9.88542 64.616 8.80017 64.616 7.4949Z" fill="url(#paint0_linear_115_49)"/>
<path d="M64.6163 7.49477C64.6163 5.89476 63.3071 4.58949 61.7023 4.58949H59.2528C59.6751 4.88423 59.5484 5.30529 59.7173 5.81055C60.0552 6.9474 59.9707 8.29478 59.2105 9.17899C58.8304 9.60004 58.3236 9.81057 57.7746 9.76847C57.4368 9.93689 57.0144 10.0211 56.5921 9.93689C55.4941 9.81057 54.8183 8.92636 54.7761 7.87372C54.6916 6.77898 55.1562 5.4316 56.0431 4.75792C56.1275 4.67371 56.212 4.6316 56.2965 4.54739H55.423V2.81671C55.423 1.2167 54.1096 0.197957 52.58 0H42.8665C42.9509 0.168422 42.9932 0.378949 43.0354 0.547371C43.1199 0.589476 43.2465 0.631582 43.331 0.673687C43.5422 0.757898 43.7111 0.92632 43.88 1.09474C43.9223 1.13685 44.0067 1.22106 44.049 1.26316C44.3868 1.64211 44.598 1.97896 44.7669 2.48422C44.9359 2.94738 44.9359 3.45265 44.8092 3.91581C44.7669 4.12634 44.6825 4.37897 44.5558 4.54739C44.4713 4.67371 44.4291 4.75792 44.3446 4.88423C44.8514 5.01055 45.2737 5.30529 45.5271 5.81055C45.8228 6.35792 45.9072 6.77898 45.9917 7.41056C46.0339 8.00004 45.8227 8.5053 45.4427 8.84215C46.5407 8.63162 47.5965 9.05267 47.9766 10.2737C48.4412 11.7895 48.8213 13.6422 48.1456 15.158C48.0611 15.3264 47.9766 15.4948 47.8499 15.6632C47.8922 15.7474 47.9344 15.8317 47.9766 15.9159C47.9766 15.958 48.0189 16.0001 48.0189 16.0422C48.0189 16.0843 48.0611 16.1264 48.0611 16.1685C48.1878 16.4211 47.3009 17.5159 47.3009 17.7685C46.3295 17.979 47.0897 18.9053 47.0897 18.9475C47.1742 18.9475 48.1878 18.6948 48.1033 18.6948L48.6946 18.8211C49.2858 18.779 49.3396 17.179 49.762 17.5159V17.2632H51.6509V18.1053C51.9465 17.4738 52.5378 16.9685 53.4669 16.9685C54.1848 16.9685 54.6231 17.2632 54.9609 17.6843V17.2632H58.028V18.9053C58.028 19.2422 58.3237 19.5369 58.6615 19.5369H60.8154C61.2017 19.3149 61.3456 19.2422 61.3456 18.9053V17.2632H61.7453C61.7721 17.2632 61.851 17.1981 61.9897 17.1151C62.2523 16.958 62.2523 16.8645 62.2523 16.6961V14.0774C62.7591 13.5721 63.0403 12.7402 63.0403 11.9823C63.0403 11.3087 62.8951 10.8116 62.515 10.3063C63.613 9.9274 64.6163 8.80004 64.6163 7.49477ZM51.7353 13.9369C49.1169 14.6527 49.2014 8.80004 51.7353 9.72636C53.8892 10.5264 53.4669 13.4737 51.7353 13.9369Z" fill="#FED401"/>
<path d="M45.1046 2.0633C45.5269 2.69488 45.2735 4.33699 45.3158 5.09489C46.625 5.05278 48.6521 4.4212 49.5813 5.1791C50.9749 6.40016 50.6793 8.08438 50.5526 9.72649C51.5662 9.72649 52.7065 9.47386 53.6356 9.47386C54.9448 9.43175 54.7337 9.26333 54.8181 8.04227C54.9448 6.82121 55.3249 5.68437 55.8317 4.58962H55.4228V2.81684C55.1601 1.24559 54.1094 0.198084 52.5798 0.0422363H42.4439C42.3595 0.0422363 42.275 0.0422365 42.1905 0.0843419C41.5148 0.210658 40.9235 0.589607 40.5012 1.13698C41.9794 0.210658 44.0065 0.463291 45.1046 2.0633Z" fill="#FED401"/>
<path d="M61.7022 5.81036H54.8183C54.4804 5.81036 54.1848 5.51567 54.1848 5.17888C54.1848 4.84209 54.4804 4.54739 54.8183 4.54739H61.7022C62.0401 4.54739 62.3357 4.84209 62.3357 5.17888C62.3357 5.55777 62.0823 5.81036 61.7022 5.81036Z" fill="black"/>
<path d="M61.7021 10.9053C61.3643 10.9053 61.0686 10.6106 61.0686 10.2737C61.0686 9.64213 61.0686 9.13687 61.7021 9.13687C62.6312 9.13687 63.3492 8.37897 63.3492 7.49475C63.3492 6.56843 62.589 5.85264 61.7021 5.85264C60.773 5.85264 60.055 6.61054 60.055 7.49475C60.055 7.57897 60.055 8.50528 60.055 9.76845C60.055 10.1053 59.7594 10.4 59.4216 10.4C59.0837 10.4 58.7881 10.1053 58.7881 9.76845C58.7881 8.50528 58.7458 7.8407 58.7881 7.50386C58.7881 5.90385 60.0973 4.58948 61.7021 4.58948C63.307 4.58948 64.6162 5.89475 64.6162 7.49475C64.6162 8.88423 63.6448 10.0632 62.3356 10.3579C62.3356 10.6527 62.04 10.9053 61.7021 10.9053Z" fill="black"/>
<path d="M61.7021 17.2632H59.4216C59.0837 17.2632 58.7881 16.9685 58.7881 16.6316V14.3579C58.7881 14.0211 59.0837 13.7264 59.4216 13.7264C59.7594 13.7264 60.0551 14.0211 60.0551 14.3579V16.0001H61.0687V13.8106C61.0687 13.4737 61.389 13.2917 61.7269 13.2917C62.0647 13.2917 62.3356 13.4737 62.3356 13.8106V16.6316C62.3356 16.8001 62.2512 16.9685 62.1667 17.0948C62.04 17.179 61.8711 17.2632 61.7021 17.2632Z" fill="black"/>
<path d="M54.227 10.4C54.058 10.4 53.9314 10.3579 53.8047 10.2316C53.5513 9.97899 53.509 9.60004 53.7624 9.34741C54.0158 9.05267 54.1847 8.67372 54.1847 8.25267V2.90528C54.1847 1.97896 53.4246 1.26316 52.5377 1.26316H42.4018C42.0639 1.26316 41.7683 0.968426 41.7683 0.631582C41.7683 0.294738 42.0639 0 42.4018 0H52.5377C54.1425 0 55.4517 1.30527 55.4517 2.90528V8.25267C55.4517 8.96846 55.1983 9.64215 54.6915 10.1895C54.5648 10.3158 54.3959 10.4 54.227 10.4Z" fill="black"/>
<path d="M44.9778 5.81055C44.64 5.81055 44.3443 5.51581 44.3443 5.17897V2.90528C44.3443 1.97896 43.5841 1.26316 42.6973 1.26316C41.8104 1.26316 41.0502 2.02106 41.0502 2.90528V5.17897C41.0502 5.51581 40.7546 5.81055 40.4167 5.81055C40.0788 5.81055 39.7832 5.51581 39.7832 5.17897V2.90528C39.7832 1.30527 41.0924 0 42.6973 0C44.3021 0 45.6113 1.30527 45.6113 2.90528V5.17897C45.6113 5.55792 45.3157 5.81055 44.9778 5.81055Z" fill="black"/>
<path d="M60.2662 14.9896H50.1303C49.7925 14.9896 49.4968 14.6949 49.4968 14.358V9.76851C49.4968 9.43167 49.7925 9.13693 50.1303 9.13693H60.2662C61.871 9.13693 63.1802 10.4422 63.1802 12.0422C63.1802 13.6843 61.871 14.9896 60.2662 14.9896ZM50.7638 13.7264H60.2662C61.1953 13.7264 61.9133 12.9685 61.9133 12.0843C61.9133 11.158 61.1531 10.4422 60.2662 10.4422H50.7638V13.7264Z" fill="black"/>
<path d="M50.4257 14.9895C50.0879 14.9895 49.7922 14.6948 49.7922 14.358C49.7922 14.0211 50.0879 13.7264 50.4257 13.7264C51.3548 13.7264 52.0728 12.9685 52.0728 12.0843C52.0728 11.1579 51.3126 10.4421 50.4257 10.4421C50.0879 10.4421 49.7922 10.1474 49.7922 9.81057C49.7922 9.47372 50.0879 9.17899 50.4257 9.17899C52.0306 9.17899 53.3398 10.4843 53.3398 12.0843C53.3398 13.6843 52.0306 14.9895 50.4257 14.9895Z" fill="black"/>
<path d="M59.3792 17.2631H49.3278C48.99 17.2631 48.6943 16.9684 48.6943 16.6316C48.6943 16.2948 48.99 16.0001 49.3278 16.0001H59.3792C59.7171 16.0001 60.0127 16.2948 60.0127 16.6316C60.0127 16.9684 59.7171 17.2631 59.3792 17.2631Z" fill="black"/>
<path d="M50.1302 17.2633H40.4167C40.0788 17.2633 39.7832 16.9685 39.7832 16.6317V9.76851C39.7832 9.43167 40.0788 9.13693 40.4167 9.13693C40.7546 9.13693 41.0502 9.43167 41.0502 9.76851V16.0001H50.1302C50.4681 16.0001 50.7637 16.2949 50.7637 16.6317C50.7637 16.9685 50.4681 17.2633 50.1302 17.2633Z" fill="black"/>
<path d="M60.7307 19.5369H58.5769C58.239 19.5369 57.9434 19.2422 57.9434 18.9054V16.6317C57.9434 16.2948 58.239 16.0001 58.5769 16.0001C58.9147 16.0001 59.2103 16.2948 59.2103 16.6317V18.2738H60.0972V16.6317C60.0972 16.2948 60.3929 16.0001 60.7307 16.0001C61.0686 16.0001 61.3642 16.2948 61.3642 16.6317V18.9054C61.3642 19.2843 61.1108 19.5369 60.7307 19.5369Z" fill="black"/>
<path d="M54.3538 19.5369H52.1999C51.862 19.5369 51.5664 19.2422 51.5664 18.9054V16.6317C51.5664 16.2948 51.862 16.0001 52.1999 16.0001C52.5378 16.0001 52.8334 16.2948 52.8334 16.6317V18.2738H53.7203V16.6317C53.7203 16.2948 54.0159 16.0001 54.3538 16.0001C54.6916 16.0001 54.9873 16.2948 54.9873 16.6317V18.9054C54.9873 19.2843 54.6916 19.5369 54.3538 19.5369Z" fill="black"/>
<path d="M43.6687 19.5369H41.5148C41.177 19.5369 40.8813 19.2422 40.8813 18.9054V16.6317C40.8813 16.2948 41.177 16.0001 41.5148 16.0001C41.8527 16.0001 42.1483 16.2948 42.1483 16.6317V18.2738H43.0352V16.6317C43.0352 16.2948 43.3308 16.0001 43.6687 16.0001C44.0066 16.0001 44.3022 16.2948 44.3022 16.6317V18.9054C44.3022 19.2843 44.0488 19.5369 43.6687 19.5369Z" fill="black"/>
<path d="M49.1589 19.5369H47.0051C46.6672 19.5369 46.3716 19.2422 46.3716 18.9054V16.6317C46.3716 16.2948 46.6672 16.0001 47.0051 16.0001C47.3429 16.0001 47.6386 16.2948 47.6386 16.6317V18.2738H48.5255V16.6317C48.5255 16.2948 48.8211 16.0001 49.1589 16.0001C49.4968 16.0001 49.7924 16.2948 49.7924 16.6317V18.9054C49.7924 19.2843 49.4968 19.5369 49.1589 19.5369Z" fill="black"/>
<path d="M47.8077 10.4H40.3325C38.7277 10.4 37.4185 9.09476 37.4185 7.49475C37.4185 5.89475 38.7277 4.58948 40.3325 4.58948H47.8077C48.1456 4.58948 48.4412 4.88422 48.4412 5.22106C48.4412 5.5579 48.1456 5.85264 47.8077 5.85264H40.3325C39.4034 5.85264 38.6854 6.61054 38.6854 7.49475C38.6854 8.42107 39.4456 9.13687 40.3325 9.13687H47.8077C48.1456 9.13687 48.4412 9.4316 48.4412 9.76845C48.4412 10.1053 48.1878 10.4 47.8077 10.4Z" fill="black"/>
<path d="M50.1302 17.2632H47.8496C47.5117 17.2632 47.2161 16.9685 47.2161 16.6317V10.3158C45.9069 10.0211 44.9355 8.84215 44.9355 7.45267C44.9355 5.85266 46.2448 4.54739 47.8496 4.54739C49.4545 4.54739 50.7637 5.85266 50.7637 7.45267V16.5896C50.7637 16.9685 50.468 17.2632 50.1302 17.2632ZM48.4409 16.0001H49.4545V7.49478C49.4545 6.56846 48.6943 5.85266 47.8074 5.85266C46.8783 5.85266 46.1603 6.61056 46.1603 7.49478C46.1603 8.4211 46.9205 9.13689 47.8074 9.13689C48.1452 9.13689 48.4409 9.43163 48.4409 9.76847V16.0001Z" fill="black"/>
<defs>
<linearGradient id="paint0_linear_115_49" x1="48.2178" y1="-3.13331" x2="53.6772" y2="17.6468" gradientUnits="userSpaceOnUse">
<stop stop-color="#FED401"/>
<stop offset="1" stop-color="#B26B28"/>
</linearGradient>
</defs>
</svg>
