<svg width="120" height="39" viewBox="0 0 120 39" fill="none" xmlns="http://www.w3.org/2000/svg">
<path d="M10.8235 13.8022C10.8235 15.131 10.3529 16.2253 9.41176 17.1633C8.47059 18.1012 7.37255 18.5702 6.03921 18.5702C5.41176 18.5702 4.86274 18.4921 4.39216 18.3357L1.17647 17.1633C0.627451 16.9288 0.313725 16.5379 0.313725 15.9908C0.313725 15.6 0.470588 15.2873 0.705882 15.0528C0.941176 14.8183 1.2549 14.662 1.64706 14.662L2.03922 14.7402L5.2549 15.9126C5.49019 15.9908 5.72549 15.9908 6.03921 15.9908C6.66666 15.9908 7.13725 15.7563 7.60784 15.3655C8 14.9747 8.23529 14.4275 8.23529 13.8022C8.23529 12.7861 7.7647 12.1607 6.82353 11.7699L3.13725 10.4411C2.19608 10.1285 1.41176 9.50316 0.862745 8.72152C0.313726 7.93987 0 7.0019 0 5.98577C0 4.65697 0.470587 3.56267 1.41176 2.6247C2.35294 1.68673 3.45098 1.21774 4.78431 1.21774C5.41176 1.21774 5.96078 1.29591 6.43137 1.45224L9.2549 2.46837C9.80392 2.70287 10.1176 3.09369 10.1176 3.719C10.1176 4.03166 9.96078 4.34432 9.72549 4.65697C9.49019 4.89147 9.17647 5.04779 8.78431 5.04779C8.62745 5.04779 8.47058 5.04779 8.39215 4.96963L5.56863 3.95349C5.33333 3.87533 5.09804 3.87533 4.78431 3.87533C4.15686 3.87533 3.68627 4.10982 3.21569 4.50064C2.82353 4.89147 2.58823 5.43862 2.58823 6.06393C2.58823 7.08007 3.05882 7.70538 4 8.01804L7.68627 9.34683C8.62745 9.65949 9.41176 10.2848 9.96078 11.0664C10.5098 11.9263 10.8235 12.7861 10.8235 13.8022Z" fill="black"/>
<path d="M28.3922 17.2416C28.3922 17.6324 28.2353 17.945 28 18.1795C27.7647 18.414 27.451 18.5704 27.0588 18.5704C26.6667 18.5704 26.353 18.414 26.1177 18.1795C25.8824 17.945 25.8039 17.6324 25.8039 17.2416V7.39287L21.3333 15.053C21.0981 15.522 20.7059 15.6783 20.2353 15.6783C19.7647 15.6783 19.3726 15.4438 19.1373 15.053L14.6667 7.39287V17.2416C14.6667 17.6324 14.5098 17.945 14.2745 18.1795C14.0392 18.414 13.7255 18.5704 13.3333 18.5704C12.9412 18.5704 12.6275 18.414 12.3922 18.1795C12.1569 17.945 12 17.6324 12 17.2416V2.54668C12 2.23402 12.1569 1.92137 12.3922 1.68687C12.6275 1.45238 12.9412 1.29605 13.2549 1.29605C13.7255 1.29605 14.1177 1.53054 14.4314 1.99953L20.2353 11.7701L26.0392 1.99953C26.2745 1.53054 26.6667 1.29605 27.1373 1.29605C27.5294 1.29605 27.8431 1.37422 28.0784 1.60871C28.3137 1.8432 28.4706 2.15586 28.4706 2.46852V17.2416H28.3922Z" fill="black"/>
<path d="M41.4902 17.2414C41.4902 17.6322 41.3333 17.9449 41.098 18.1794C40.8628 18.4139 40.549 18.5702 40.1569 18.5702C39.5294 18.5702 39.1373 18.2575 38.902 17.7104L37.6471 13.8803H33.0196L31.8431 17.6322C31.6079 18.2575 31.2157 18.6484 30.5882 18.6484C30.1961 18.6484 29.8824 18.492 29.6471 18.2575C29.4118 18.0231 29.2549 17.7104 29.2549 17.3196L29.3333 17.0069L34.1177 2.31203C34.2745 1.68671 34.7451 1.37405 35.2941 1.37405C35.9216 1.37405 36.3137 1.68671 36.4706 2.31203L41.4902 17.2414ZM36.9412 11.2228L35.5294 6.76739L34.0392 11.2228H36.9412Z" fill="black"/>
<path d="M53.3333 17.2415C53.3333 17.6323 53.1765 17.9449 52.9412 18.1794C52.7059 18.4139 52.3922 18.5703 52 18.5703C51.5294 18.5703 51.1373 18.3358 50.902 17.9449L47.0588 11.2228H45.098V17.2415C45.098 17.6323 44.9412 17.9449 44.7059 18.1794C44.4706 18.4139 44.1569 18.5703 43.7647 18.5703C43.3726 18.5703 43.0588 18.4139 42.8235 18.1794C42.5882 17.9449 42.4314 17.6323 42.4314 17.2415V3.01556C42.4314 2.62474 42.5882 2.31208 42.8235 2.07759C43.0588 1.8431 43.3726 1.68677 43.7647 1.68677H48.549C49.8824 1.68677 50.9804 2.15575 51.9216 3.09373C52.8627 4.0317 53.3333 5.126 53.3333 6.45479C53.3333 7.54909 53.0196 8.48706 52.3922 9.34687C51.7647 10.2067 50.902 10.7538 49.8824 11.0665L53.098 16.6943C53.2549 16.9288 53.3333 17.0851 53.3333 17.2415ZM50.7451 6.45479C50.7451 5.82948 50.5098 5.36049 50.1176 4.8915C49.7255 4.50068 49.1765 4.26619 48.549 4.26619H45.098V8.56523H48.549C49.1765 8.56523 49.6471 8.33073 50.1176 7.93991C50.5098 7.54909 50.7451 7.0801 50.7451 6.45479Z" fill="black"/>
<path d="M66.902 3.01556C66.902 3.40638 66.7451 3.71904 66.5098 3.95353C66.2745 4.18803 65.9608 4.34435 65.5686 4.34435H61.6471V17.3196C61.6471 17.7105 61.4902 18.0231 61.2549 18.2576C61.0196 18.4921 60.7059 18.6484 60.3137 18.6484C59.9216 18.6484 59.6078 18.4921 59.3726 18.2576C59.1373 18.0231 58.9804 17.7105 58.9804 17.3196V4.34435H55.0588C54.6667 4.34435 54.3529 4.18803 54.1177 3.95353C53.8824 3.71904 53.7255 3.40638 53.7255 3.01556C53.7255 2.62474 53.8824 2.31208 54.1177 2.07759C54.3529 1.8431 54.6667 1.68677 55.0588 1.68677H65.4902C65.8824 1.68677 66.1961 1.8431 66.4314 2.07759C66.8235 2.39025 66.902 2.62474 66.902 3.01556Z" fill="black"/>
<path d="M13.0196 29.3568C13.0196 31.6236 12.2353 33.5777 10.5882 35.1409C9.01961 36.7042 7.05882 37.564 4.78431 37.564H1.33333C0.941175 37.564 0.627451 37.4077 0.392157 37.1732C0.156863 36.9387 0 36.6261 0 36.2352V22.4783C0 22.0875 0.156863 21.7749 0.392157 21.5404C0.627451 21.3059 0.941175 21.1495 1.33333 21.1495H4.78431C7.05882 21.1495 9.01961 21.9312 10.5882 23.5726C12.1569 25.1359 13.0196 27.09 13.0196 29.3568ZM10.3529 29.3568C10.3529 27.7935 9.80392 26.4647 8.70588 25.3704C7.60784 24.2761 6.27451 23.729 4.70588 23.729H2.5098V34.9846H4.70588C6.27451 34.9846 7.60784 34.4375 8.70588 33.3432C9.88235 32.2489 10.3529 30.9201 10.3529 29.3568Z" fill="black"/>
<path d="M24 36.2352C24 36.6261 23.8431 36.9387 23.6078 37.1732C23.3725 37.4077 23.0588 37.564 22.6667 37.564H16.1569C15.7647 37.564 15.451 37.4077 15.2157 37.1732C14.9804 36.9387 14.8235 36.6261 14.8235 36.2352V22.4783C14.8235 22.0875 14.9804 21.7749 15.2157 21.5404C15.451 21.3059 15.7647 21.1495 16.1569 21.1495H22.6667C23.0588 21.1495 23.3725 21.3059 23.6078 21.5404C23.8431 21.7749 24 22.0875 24 22.4783C24 22.8692 23.8431 23.1818 23.6078 23.4163C23.3725 23.6508 23.0588 23.8071 22.6667 23.8071H17.4118V28.1062H20.8627C21.2549 28.1062 21.5686 28.2625 21.8039 28.497C22.0392 28.7315 22.1961 29.0441 22.1961 29.435C22.1961 29.8258 22.0392 30.1384 21.8039 30.3729C21.5686 30.6074 21.2549 30.7637 20.8627 30.7637H17.4118V35.0628H22.6667C23.0588 35.0628 23.3725 35.2191 23.6078 35.4536C23.9216 35.6099 24 35.9226 24 36.2352Z" fill="black"/>
<path d="M39.7647 34.5156C39.7647 34.9064 39.6079 35.2191 39.3726 35.4536C37.7255 37.1732 35.6863 37.9548 33.3333 37.9548C30.902 37.9548 28.8628 37.095 27.2157 35.4536C25.5686 33.8121 24.7059 31.7017 24.7059 29.3568C24.7059 26.9337 25.5686 24.9014 27.2157 23.26C28.8628 21.6185 30.902 20.7587 33.3333 20.7587C35.6863 20.7587 37.7255 21.6185 39.3726 23.3381C39.6079 23.5726 39.7647 23.8853 39.7647 24.1979C39.7647 24.5887 39.6079 24.9014 39.3726 25.1359C39.1373 25.3704 38.8235 25.5267 38.4314 25.5267C38.1177 25.5267 37.8039 25.4486 37.5686 25.2141C36.3137 24.0416 34.902 23.4163 33.3333 23.4163C31.6079 23.4163 30.1961 23.9634 29.0196 25.1359C27.8431 26.3084 27.2941 27.7153 27.2941 29.4349C27.2941 31.1545 27.8431 32.5615 29.0196 33.734C30.1961 34.9064 31.6079 35.4536 33.3333 35.4536C34.902 35.4536 36.3137 34.8283 37.5686 33.6558C37.8039 33.4213 38.1177 33.265 38.4314 33.265C38.8235 33.265 39.1373 33.4213 39.3726 33.6558C39.6863 33.8903 39.7647 34.203 39.7647 34.5156Z" fill="black"/>
<path d="M57.8039 29.3568C57.8039 31.7799 56.9412 33.8121 55.2941 35.4536C53.6471 37.095 51.6079 37.9548 49.1765 37.9548C46.7451 37.9548 44.7059 37.095 43.0588 35.4536C41.4118 33.8121 40.549 31.7017 40.549 29.3568C40.549 26.9337 41.4118 24.9014 43.0588 23.26C44.7059 21.6185 46.7451 20.7587 49.1765 20.7587C51.6079 20.7587 53.6471 21.6185 55.2941 23.26C57.0196 24.9014 57.8039 26.9337 57.8039 29.3568ZM55.2157 29.3568C55.2157 27.6372 54.6667 26.2302 53.4902 25.0577C52.3137 23.8853 50.902 23.3381 49.1765 23.3381C47.451 23.3381 46.0392 23.8853 44.8628 25.0577C43.6863 26.2302 43.1373 27.6372 43.1373 29.3568C43.1373 31.0764 43.6863 32.4833 44.8628 33.6558C46.0392 34.8283 47.451 35.3754 49.1765 35.3754C50.902 35.3754 52.3137 34.8283 53.4902 33.6558C54.6667 32.4833 55.2157 31.0764 55.2157 29.3568Z" fill="black"/>
<path d="M69.9608 36.7042C69.9608 37.0951 69.8039 37.4077 69.5686 37.6422C69.3333 37.8767 69.0196 38.033 68.6274 38.033C68.1569 38.033 67.7647 37.7985 67.5294 37.4077L63.6863 30.7637H61.7255V36.7824C61.7255 37.1732 61.5686 37.4859 61.3333 37.7204C61.098 37.9549 60.7843 38.1112 60.3921 38.1112C60 38.1112 59.6863 37.9549 59.451 37.7204C59.2157 37.4859 59.0588 37.1732 59.0588 36.7824V22.4783C59.0588 22.0875 59.2157 21.7749 59.451 21.5404C59.6863 21.3059 60 21.1495 60.3921 21.1495H65.1765C66.5098 21.1495 67.6078 21.6185 68.549 22.5565C69.4902 23.4945 69.9608 24.5888 69.9608 25.9176C69.9608 27.0119 69.647 27.9498 69.0196 28.8096C68.3921 29.6694 67.5294 30.2166 66.5098 30.5293L69.7255 36.1571C69.8823 36.3134 69.9608 36.5479 69.9608 36.7042ZM67.3725 25.9176C67.3725 25.2922 67.1372 24.8233 66.7451 24.3543C66.3529 23.9635 65.8039 23.729 65.1765 23.729H61.7255V28.028H65.1765C65.8039 28.028 66.2745 27.7935 66.7451 27.4027C67.1372 27.0119 67.3725 26.4647 67.3725 25.9176Z" fill="black"/>
<path d="M120 14.8967C120 11.9264 117.569 9.50333 114.588 9.50333H102.98V6.45492C102.98 3.48468 100.549 1.06158 97.5686 1.06158H78.7451C78.5882 1.06158 78.4314 1.06158 78.2745 1.13975C75.7647 1.60873 73.8824 3.79734 73.8824 6.45492V9.65966C71.3726 10.1286 69.7561 12.3053 69.7561 14.9629C69.7561 17.5424 71.3726 19.651 73.8824 20.1981V31.9365C74.1463 32.4641 74.4945 32.9503 75.1219 32.9503H76V36.1574C76 36.7827 76.8359 36.8394 77.4634 36.8394H81.4634C82.0908 36.8394 81.9512 36.7827 81.9512 36.1574V32.9503H86.1961V36.1574C86.1961 36.7827 86.6896 36.8394 87.317 36.8394H91.317C91.9445 36.8394 92.1951 36.7827 92.1951 36.1574V32.9503H93.1765H95.9216V36.1574C95.9216 36.7827 96.4457 36.8394 97.0731 36.8394H101.073C101.701 36.8394 101.951 36.7827 101.951 36.1574V32.9503H107.843V36.1574C107.843 36.7827 108.392 36.8437 109.02 36.8437L113.171 36.8394C113.798 36.8394 113.658 36.9786 113.658 36.3533V32.9503H114.634C114.948 32.9503 115.374 32.6204 115.61 32.4641C115.61 31.978 115.686 32.2355 115.686 31.9229L115.61 27.1165C116.551 26.1786 117.073 24.6343 117.073 23.2274C117.073 21.9767 116.803 21.054 116.098 20.1161C118.058 19.3344 120 17.3198 120 14.8967Z" fill="url(#paint0_linear_1_49)"/>
<path d="M120 14.8964C120 11.9262 117.569 9.50306 114.588 9.50306H110.039C110.824 10.0502 110.588 10.8319 110.902 11.7698C111.529 13.8803 111.373 16.3815 109.961 18.023C109.255 18.8046 108.314 19.1954 107.294 19.1173C106.667 19.4299 105.882 19.5863 105.098 19.4299C103.059 19.1954 101.804 17.554 101.725 15.5999C101.569 13.5676 102.431 11.0664 104.078 9.81572C104.235 9.65939 104.392 9.58123 104.549 9.4249H102.927V6.21208C102.927 3.24184 100.488 1.35064 97.6471 0.983154H79.6078C79.7647 1.29581 79.8431 1.68663 79.9216 1.99929C80.0784 2.07745 80.3137 2.15562 80.4706 2.23378C80.8627 2.39011 81.1765 2.70277 81.4902 3.01543C81.5686 3.09359 81.7255 3.24992 81.8039 3.32808C82.4314 4.03156 82.8235 4.65688 83.1372 5.59485C83.451 6.45466 83.451 7.39263 83.2157 8.25244C83.1372 8.64326 82.9804 9.11224 82.7451 9.4249C82.5882 9.65939 82.5098 9.81572 82.3529 10.0502C83.2941 10.2847 84.0784 10.8319 84.549 11.7698C85.098 12.786 85.2549 13.5676 85.4118 14.7401C85.4902 15.8344 85.098 16.7723 84.3921 17.3977C86.4314 17.0068 88.3921 17.7885 89.098 20.0552C89.9608 22.8692 90.6667 26.3084 89.4118 29.1223C89.2549 29.435 89.098 29.7476 88.8627 30.0603C88.9412 30.2166 89.0196 30.3729 89.098 30.5293C89.098 30.6074 89.1765 30.6856 89.1765 30.7638C89.1765 30.8419 89.2549 30.9201 89.2549 30.9982C89.4902 31.4672 87.8431 33.4995 87.8431 33.9685C86.0392 34.3593 87.451 36.0789 87.451 36.1571C87.6078 36.1571 89.4902 35.6881 89.3333 35.6881L90.4314 35.9226C91.5294 35.8444 91.6293 32.8742 92.4136 33.4995V33.0305H95.9216V34.5938C96.4706 33.4213 97.5686 32.4834 99.2941 32.4834C100.627 32.4834 101.441 33.0305 102.069 33.8122V33.0305H107.765V36.0789C107.765 36.7042 108.314 37.2514 108.941 37.2514H112.941C113.659 36.8391 113.926 36.7042 113.926 36.0789V33.0305H114.668C114.718 33.0305 114.864 32.9096 115.122 32.7555C115.61 32.4638 115.61 32.2904 115.61 31.9777V27.1163C116.551 26.1783 117.073 24.6341 117.073 23.2271C117.073 21.9765 116.803 21.0538 116.098 20.1158C118.137 19.4123 120 17.3195 120 14.8964ZM96.0784 26.8555C91.2157 28.1843 91.3725 17.3195 96.0784 19.0391C100.078 20.5242 99.2941 25.9957 96.0784 26.8555Z" fill="#FED401"/>
<path d="M83.7647 4.81347C84.549 5.98594 84.0784 9.03434 84.1568 10.4413C86.5882 10.3631 90.3529 9.19067 92.0784 10.5976C94.6666 12.8644 94.1176 15.991 93.8823 19.0394C95.7647 19.0394 97.8823 18.5704 99.6078 18.5704C102.039 18.4922 101.647 18.1796 101.804 15.9128C102.039 13.646 102.745 11.5356 103.686 9.50333H102.927V6.21234C102.439 3.29548 100.488 1.3509 97.647 1.06158H78.8235C78.6666 1.06158 78.5098 1.06158 78.3529 1.13975C77.098 1.37424 76 2.07772 75.2157 3.09386C77.9608 1.37424 81.7255 1.84323 83.7647 4.81347Z" fill="#FED401"/>
<path d="M114.588 11.7704H101.804C101.176 11.7704 100.627 11.2231 100.627 10.5976C100.627 9.97218 101.176 9.4249 101.804 9.4249H114.588C115.216 9.4249 115.765 9.97218 115.765 10.5976C115.765 11.3013 115.294 11.7704 114.588 11.7704Z" fill="black"/>
<path d="M114.588 21.2277C113.961 21.2277 113.412 20.6805 113.412 20.0552C113.412 18.8828 113.412 17.9448 114.588 17.9448C116.314 17.9448 117.647 16.5378 117.647 14.8964C117.647 13.1768 116.235 11.848 114.588 11.848C112.863 11.848 111.529 13.2549 111.529 14.8964C111.529 15.0527 111.529 16.7723 111.529 19.1173C111.529 19.7426 110.98 20.2897 110.353 20.2897C109.725 20.2897 109.176 19.7426 109.176 19.1173C109.176 16.7723 109.098 15.5386 109.176 14.9133C109.176 11.9431 111.608 9.50305 114.588 9.50305C117.569 9.50305 120 11.9261 120 14.8964C120 17.4758 118.196 19.6644 115.765 20.2116C115.765 20.7587 115.216 21.2277 114.588 21.2277Z" fill="black"/>
<path d="M114.588 33.0305H110.353C109.725 33.0305 109.176 32.4834 109.176 31.8581V27.6372C109.176 27.0119 109.725 26.4647 110.353 26.4647C110.98 26.4647 111.529 27.0119 111.529 27.6372V30.6856H113.412V26.621C113.412 25.9957 114.007 25.6578 114.634 25.6578C115.262 25.6578 115.765 25.9957 115.765 26.621V31.8581C115.765 32.1707 115.608 32.4834 115.451 32.7179C115.216 32.8742 114.902 33.0305 114.588 33.0305Z" fill="black"/>
<path d="M100.706 20.2897C100.392 20.2897 100.157 20.2116 99.9216 19.9771C99.451 19.5081 99.3725 18.8046 99.8431 18.3356C100.314 17.7885 100.627 17.085 100.627 16.3034V6.37649C100.627 4.65688 99.2157 3.32808 97.5686 3.32808H78.7451C78.1176 3.32808 77.5686 2.78093 77.5686 2.15562C77.5686 1.5303 78.1176 0.983154 78.7451 0.983154H97.5686C100.549 0.983154 102.98 3.40625 102.98 6.37649V16.3034C102.98 17.6322 102.51 18.8828 101.569 19.8989C101.333 20.1334 101.02 20.2897 100.706 20.2897Z" fill="black"/>
<path d="M83.5294 11.7698C82.9019 11.7698 82.3529 11.2227 82.3529 10.5974V6.37649C82.3529 4.65688 80.9412 3.32808 79.2941 3.32808C77.647 3.32808 76.2353 4.73504 76.2353 6.37649V10.5974C76.2353 11.2227 75.6863 11.7698 75.0588 11.7698C74.4314 11.7698 73.8823 11.2227 73.8823 10.5974V6.37649C73.8823 3.40625 76.3137 0.983154 79.2941 0.983154C82.2745 0.983154 84.7059 3.40625 84.7059 6.37649V10.5974C84.7059 11.3008 84.1569 11.7698 83.5294 11.7698Z" fill="black"/>
<path d="M111.922 28.8096H93.098C92.4706 28.8096 91.9216 28.2625 91.9216 27.6372V19.1173C91.9216 18.4919 92.4706 17.9448 93.098 17.9448H111.922C114.902 17.9448 117.333 20.3679 117.333 23.3381C117.333 26.3865 114.902 28.8096 111.922 28.8096ZM94.2745 26.4647H111.922C113.647 26.4647 114.98 25.0577 114.98 23.4163C114.98 21.6967 113.569 20.3679 111.922 20.3679H94.2745V26.4647Z" fill="black"/>
<path d="M93.647 28.8097C93.0196 28.8097 92.4706 28.2625 92.4706 27.6372C92.4706 27.0119 93.0196 26.4647 93.647 26.4647C95.3725 26.4647 96.7059 25.0578 96.7059 23.4163C96.7059 21.6967 95.2941 20.3679 93.647 20.3679C93.0196 20.3679 92.4706 19.8208 92.4706 19.1954C92.4706 18.5701 93.0196 18.023 93.647 18.023C96.6274 18.023 99.0588 20.4461 99.0588 23.4163C99.0588 26.3866 96.6274 28.8097 93.647 28.8097Z" fill="black"/>
<path d="M110.274 33.0311H91.6078C90.9804 33.0311 90.4314 32.4838 90.4314 31.8583C90.4314 31.2329 90.9804 30.6856 91.6078 30.6856H110.274C110.902 30.6856 111.451 31.2329 111.451 31.8583C111.451 32.4838 110.902 33.0311 110.274 33.0311Z" fill="black"/>
<path d="M93.098 33.0305H75.0588C74.4314 33.0305 73.8823 32.4834 73.8823 31.858V19.1173C73.8823 18.4919 74.4314 17.9448 75.0588 17.9448C75.6863 17.9448 76.2353 18.4919 76.2353 19.1173V30.6856H93.098C93.7255 30.6856 94.2745 31.2327 94.2745 31.858C94.2745 32.4834 93.7255 33.0305 93.098 33.0305Z" fill="black"/>
<path d="M112.784 37.2514H108.784C108.157 37.2514 107.608 36.7042 107.608 36.0789V31.858C107.608 31.2327 108.157 30.6856 108.784 30.6856C109.412 30.6856 109.961 31.2327 109.961 31.858V34.9064H111.608V31.858C111.608 31.2327 112.157 30.6856 112.784 30.6856C113.412 30.6856 113.961 31.2327 113.961 31.858V36.0789C113.961 36.7824 113.49 37.2514 112.784 37.2514Z" fill="black"/>
<path d="M100.941 37.2514H96.9412C96.3137 37.2514 95.7647 36.7042 95.7647 36.0789V31.858C95.7647 31.2327 96.3137 30.6856 96.9412 30.6856C97.5686 30.6856 98.1176 31.2327 98.1176 31.858V34.9064H99.7647V31.858C99.7647 31.2327 100.314 30.6856 100.941 30.6856C101.569 30.6856 102.118 31.2327 102.118 31.858V36.0789C102.118 36.7824 101.569 37.2514 100.941 37.2514Z" fill="black"/>
<path d="M81.098 37.2514H77.098C76.4706 37.2514 75.9216 36.7042 75.9216 36.0789V31.858C75.9216 31.2327 76.4706 30.6856 77.098 30.6856C77.7255 30.6856 78.2745 31.2327 78.2745 31.858V34.9064H79.9216V31.858C79.9216 31.2327 80.4706 30.6856 81.098 30.6856C81.7255 30.6856 82.2745 31.2327 82.2745 31.858V36.0789C82.2745 36.7824 81.8039 37.2514 81.098 37.2514Z" fill="black"/>
<path d="M91.2941 37.2514H87.2941C86.6667 37.2514 86.1176 36.7042 86.1176 36.0789V31.858C86.1176 31.2327 86.6667 30.6856 87.2941 30.6856C87.9216 30.6856 88.4706 31.2327 88.4706 31.858V34.9064H90.1176V31.858C90.1176 31.2327 90.6666 30.6856 91.2941 30.6856C91.9216 30.6856 92.4706 31.2327 92.4706 31.858V36.0789C92.4706 36.7824 91.9216 37.2514 91.2941 37.2514Z" fill="black"/>
<path d="M88.7843 20.2897H74.902C71.9216 20.2897 69.4902 17.8666 69.4902 14.8964C69.4902 11.9261 71.9216 9.50305 74.902 9.50305H88.7843C89.4118 9.50305 89.9608 10.0502 89.9608 10.6755C89.9608 11.3008 89.4118 11.848 88.7843 11.848H74.902C73.1765 11.848 71.8432 13.2549 71.8432 14.8964C71.8432 16.616 73.2549 17.9448 74.902 17.9448H88.7843C89.4118 17.9448 89.9608 18.4919 89.9608 19.1173C89.9608 19.7426 89.4902 20.2897 88.7843 20.2897Z" fill="black"/>
<path d="M93.098 33.0305H88.8627C88.2353 33.0305 87.6863 32.4834 87.6863 31.8581V20.1334C85.2549 19.5863 83.451 17.3977 83.451 14.8182C83.451 11.848 85.8823 9.4249 88.8627 9.4249C91.8431 9.4249 94.2745 11.848 94.2745 14.8182V31.7799C94.2745 32.4834 93.7255 33.0305 93.098 33.0305ZM89.9608 30.6856H91.8431V14.8964C91.8431 13.1768 90.4314 11.848 88.7843 11.848C87.0588 11.848 85.7255 13.2549 85.7255 14.8964C85.7255 16.616 87.1372 17.9448 88.7843 17.9448C89.4117 17.9448 89.9608 18.492 89.9608 19.1173V30.6856Z" fill="black"/>
<defs>
<linearGradient id="paint0_linear_1_49" x1="89.5466" y1="-4.83349" x2="99.6778" y2="33.7446" gradientUnits="userSpaceOnUse">
<stop stop-color="#FED401"/>
<stop offset="1" stop-color="#B26B28"/>
</linearGradient>
</defs>
</svg>
