<svg width="20" height="22" viewBox="0 0 20 22" fill="none" xmlns="http://www.w3.org/2000/svg">
<path d="M14.13 15.2509L19.625 20.7459" stroke="#31302E" stroke-width="0.524832" stroke-linecap="round"/>
<mask id="path-2-inside-1_16_46" fill="white">
<path d="M8.37332 4.46528C8.37332 4.35243 8.2818 4.26053 8.16905 4.26508C7.47438 4.29315 6.79217 4.46416 6.16534 4.76823C5.47716 5.10207 4.87364 5.58761 4.40017 6.18833C3.9267 6.78906 3.59562 7.48932 3.43182 8.23646C3.28262 8.91699 3.27575 9.62027 3.41077 10.3023C3.43268 10.413 3.54343 10.4805 3.65315 10.4541C3.76287 10.4277 3.82997 10.3175 3.80845 10.2067C3.68764 9.58487 3.69501 8.94414 3.83098 8.32397C3.98155 7.63719 4.28589 6.99349 4.72111 6.44129C5.15633 5.88909 5.7111 5.44277 6.3437 5.1359C6.91494 4.85879 7.5362 4.70191 8.16906 4.67409C8.2818 4.66913 8.37332 4.57812 8.37332 4.46528Z"/>
</mask>
<path d="M8.37332 4.46528C8.37332 4.35243 8.2818 4.26053 8.16905 4.26508C7.47438 4.29315 6.79217 4.46416 6.16534 4.76823C5.47716 5.10207 4.87364 5.58761 4.40017 6.18833C3.9267 6.78906 3.59562 7.48932 3.43182 8.23646C3.28262 8.91699 3.27575 9.62027 3.41077 10.3023C3.43268 10.413 3.54343 10.4805 3.65315 10.4541C3.76287 10.4277 3.82997 10.3175 3.80845 10.2067C3.68764 9.58487 3.69501 8.94414 3.83098 8.32397C3.98155 7.63719 4.28589 6.99349 4.72111 6.44129C5.15633 5.88909 5.7111 5.44277 6.3437 5.1359C6.91494 4.85879 7.5362 4.70191 8.16906 4.67409C8.2818 4.66913 8.37332 4.57812 8.37332 4.46528Z" stroke="#31302E" stroke-width="0.707205" mask="url(#path-2-inside-1_16_46)"/>
<circle cx="8.3733" cy="9.31983" r="8.11088" stroke="#31302E" stroke-width="0.524832"/>
</svg>
