<svg width="234" height="74" viewBox="0 0 234 74" fill="none" xmlns="http://www.w3.org/2000/svg">
<path d="M21.1059 25.7389C21.1059 28.33 20.1882 30.4639 18.3529 32.293C16.5176 34.122 14.3765 35.0366 11.7765 35.0366C10.5529 35.0366 9.48235 34.8841 8.5647 34.5793L2.29412 32.293C1.22353 31.8357 0.611764 31.0736 0.611764 30.0067C0.611764 29.2446 0.917646 28.6349 1.37647 28.1776C1.83529 27.7204 2.44706 27.4155 3.21176 27.4155L3.97647 27.5679L10.2471 29.8543C10.7059 30.0067 11.1647 30.0067 11.7765 30.0067C13 30.0067 13.9176 29.5494 14.8353 28.7873C15.6 28.0252 16.0588 26.9583 16.0588 25.7389C16.0588 23.7574 15.1412 22.5381 13.3059 21.776L6.11765 19.1848C4.28235 18.5751 2.75294 17.3558 1.68235 15.8316C0.611765 14.3074 0 12.4783 0 10.4969C0 7.90572 0.917646 5.77183 2.75294 3.94279C4.58823 2.11374 6.72941 1.19922 9.32941 1.19922C10.5529 1.19922 11.6235 1.35164 12.5412 1.65648L18.0471 3.63795C19.1176 4.09521 19.7294 4.85731 19.7294 6.07667C19.7294 6.68635 19.4235 7.29604 18.9647 7.90572C18.5059 8.36298 17.8941 8.66782 17.1294 8.66782C16.8235 8.66782 16.5176 8.66782 16.3647 8.5154L10.8588 6.53393C10.4 6.38151 9.94117 6.38151 9.32941 6.38151C8.10588 6.38151 7.18823 6.83877 6.27059 7.60088C5.50588 8.36298 5.04706 9.42992 5.04706 10.6493C5.04706 12.6307 5.9647 13.8501 7.8 14.4598L14.9882 17.0509C16.8235 17.6606 18.3529 18.88 19.4235 20.4042C20.4941 22.0808 21.1059 23.7574 21.1059 25.7389Z" fill="black"/>
<path d="M55.3647 32.4453C55.3647 33.2074 55.0588 33.8171 54.6 34.2744C54.1412 34.7316 53.5294 35.0365 52.7647 35.0365C52 35.0365 51.3882 34.7316 50.9294 34.2744C50.4706 33.8171 50.3176 33.2074 50.3176 32.4453V13.2404L41.6 28.1776C41.1412 29.0921 40.3765 29.3969 39.4588 29.3969C38.5412 29.3969 37.7765 28.9397 37.3176 28.1776L28.6 13.2404V32.4453C28.6 33.2074 28.2941 33.8171 27.8353 34.2744C27.3765 34.7316 26.7647 35.0365 26 35.0365C25.2353 35.0365 24.6235 34.7316 24.1647 34.2744C23.7059 33.8171 23.4 33.2074 23.4 32.4453V3.79029C23.4 3.18061 23.7059 2.57093 24.1647 2.11366C24.6235 1.6564 25.2353 1.35156 25.8471 1.35156C26.7647 1.35156 27.5294 1.80882 28.1412 2.72335L39.4588 21.7759L50.7765 2.72335C51.2353 1.80882 52 1.35156 52.9176 1.35156C53.6823 1.35156 54.2941 1.50398 54.7529 1.96124C55.2118 2.4185 55.5176 3.02819 55.5176 3.63787V32.4453H55.3647Z" fill="black"/>
<path d="M80.9058 32.4443C80.9058 33.2064 80.6 33.8161 80.1411 34.2733C79.6823 34.7306 79.0705 35.0354 78.3058 35.0354C77.0823 35.0354 76.3176 34.4257 75.8588 33.3588L73.4117 25.8902H64.3882L62.0941 33.2064C61.6353 34.4257 60.8705 35.1878 59.647 35.1878C58.8823 35.1878 58.2705 34.883 57.8117 34.4257C57.3529 33.9685 57.047 33.3588 57.047 32.5967L57.2 31.987L66.5294 3.33198C66.8352 2.11261 67.7529 1.50293 68.8235 1.50293C70.047 1.50293 70.8117 2.11261 71.1176 3.33198L80.9058 32.4443ZM72.0352 20.7079L69.2823 12.0199L66.3764 20.7079H72.0352Z" fill="black"/>
<path d="M104 32.444C104 33.2061 103.694 33.8157 103.235 34.273C102.777 34.7303 102.165 35.0351 101.4 35.0351C100.482 35.0351 99.7177 34.5779 99.2589 33.8158L91.7648 20.7076H87.9412V32.444C87.9412 33.2061 87.6353 33.8157 87.1765 34.273C86.7177 34.7303 86.1059 35.0351 85.3412 35.0351C84.5765 35.0351 83.9648 34.7303 83.5059 34.273C83.0471 33.8157 82.7412 33.2061 82.7412 32.444V4.70345C82.7412 3.94135 83.0471 3.33167 83.5059 2.87441C83.9648 2.41715 84.5765 2.1123 85.3412 2.1123H94.6706C97.2706 2.1123 99.4118 3.02683 101.247 4.85587C103.082 6.68492 104 8.8188 104 11.4099C104 13.5438 103.388 15.3729 102.165 17.0495C100.941 18.7261 99.2589 19.7931 97.2706 20.4028L103.541 31.377C103.847 31.8343 104 32.1391 104 32.444ZM98.953 11.4099C98.953 10.1906 98.4942 9.27606 97.7295 8.36154C96.9648 7.59944 95.8942 7.14218 94.6706 7.14218H87.9412V15.5253H94.6706C95.8942 15.5253 96.8118 15.068 97.7295 14.3059C98.4942 13.5438 98.953 12.6293 98.953 11.4099Z" fill="black"/>
<path d="M130.459 4.70345C130.459 5.46555 130.153 6.07523 129.694 6.5325C129.235 6.98976 128.624 7.2946 127.859 7.2946H120.212V32.5964C120.212 33.3585 119.906 33.9682 119.447 34.4254C118.988 34.8827 118.377 35.1875 117.612 35.1875C116.847 35.1875 116.235 34.8827 115.777 34.4254C115.318 33.9682 115.012 33.3585 115.012 32.5964V7.2946H107.365C106.6 7.2946 105.988 6.98976 105.53 6.5325C105.071 6.07523 104.765 5.46555 104.765 4.70345C104.765 3.94135 105.071 3.33167 105.53 2.87441C105.988 2.41715 106.6 2.1123 107.365 2.1123H127.706C128.471 2.1123 129.083 2.41715 129.541 2.87441C130.306 3.48409 130.459 3.94135 130.459 4.70345Z" fill="black"/>
<path d="M25.3882 56.0686C25.3882 60.4888 23.8588 64.2993 20.6471 67.3477C17.5882 70.3961 13.7647 72.0727 9.32941 72.0727H2.6C1.83529 72.0727 1.22353 71.7679 0.764706 71.3106C0.305882 70.8534 0 70.2437 0 69.4816V42.6556C0 41.8935 0.305882 41.2838 0.764706 40.8266C1.22353 40.3693 1.83529 40.0645 2.6 40.0645H9.32941C13.7647 40.0645 17.5882 41.5887 20.6471 44.7895C23.7059 47.8379 25.3882 51.6484 25.3882 56.0686ZM20.1882 56.0686C20.1882 53.0202 19.1176 50.429 16.9765 48.2952C14.8353 46.1613 12.2353 45.0943 9.17647 45.0943H4.89411V67.0429H9.17647C12.2353 67.0429 14.8353 65.9759 16.9765 63.842C19.2706 61.7081 20.1882 59.117 20.1882 56.0686Z" fill="black"/>
<path d="M46.7999 69.4816C46.7999 70.2437 46.494 70.8534 46.0352 71.3106C45.5764 71.7679 44.9646 72.0727 44.1999 72.0727H31.5058C30.7411 72.0727 30.1293 71.7679 29.6705 71.3106C29.2117 70.8534 28.9058 70.2437 28.9058 69.4816V42.6556C28.9058 41.8935 29.2117 41.2838 29.6705 40.8266C30.1293 40.3693 30.7411 40.0645 31.5058 40.0645H44.1999C44.9646 40.0645 45.5764 40.3693 46.0352 40.8266C46.494 41.2838 46.7999 41.8935 46.7999 42.6556C46.7999 43.4177 46.494 44.0274 46.0352 44.4846C45.5764 44.9419 44.9646 45.2467 44.1999 45.2467H33.9529V53.6299H40.6823C41.447 53.6299 42.0587 53.9347 42.5176 54.392C42.9764 54.8492 43.2823 55.4589 43.2823 56.221C43.2823 56.9831 42.9764 57.5928 42.5176 58.0501C42.0587 58.5073 41.447 58.8122 40.6823 58.8122H33.9529V67.1953H44.1999C44.9646 67.1953 45.5764 67.5001 46.0352 67.9574C46.647 68.2622 46.7999 68.8719 46.7999 69.4816Z" fill="black"/>
<path d="M77.541 66.1297C77.541 66.8918 77.2352 67.5015 76.7763 67.9587C73.5646 71.312 69.5881 72.8362 64.9999 72.8362C60.2587 72.8362 56.2822 71.1596 53.0704 67.9587C49.8587 64.7579 48.1763 60.6426 48.1763 56.07C48.1763 51.3449 49.8587 47.382 53.0704 44.1812C56.2822 40.9803 60.2587 39.3037 64.9999 39.3037C69.5881 39.3037 73.5646 40.9803 76.7763 44.3336C77.2352 44.7908 77.541 45.4005 77.541 46.0102C77.541 46.7723 77.2352 47.382 76.7763 47.8393C76.3175 48.2965 75.7057 48.6014 74.941 48.6014C74.3293 48.6014 73.7175 48.4489 73.2587 47.9917C70.8116 45.7054 68.0587 44.486 64.9999 44.486C61.6351 44.486 58.8822 45.5529 56.5881 47.8393C54.294 50.1256 53.2234 52.8691 53.2234 56.2224C53.2234 59.5756 54.294 62.3192 56.5881 64.6055C58.8822 66.8918 61.6351 67.9587 64.9999 67.9587C68.0587 67.9587 70.8116 66.7394 73.2587 64.4531C73.7175 63.9958 74.3293 63.691 74.941 63.691C75.7057 63.691 76.3175 63.9958 76.7763 64.4531C77.3881 64.9103 77.541 65.52 77.541 66.1297Z" fill="black"/>
<path d="M112.718 56.07C112.718 60.795 111.035 64.7579 107.824 67.9587C104.612 71.1596 100.635 72.8362 95.8942 72.8362C91.153 72.8362 87.1766 71.1596 83.9648 67.9587C80.753 64.7579 79.0707 60.6426 79.0707 56.07C79.0707 51.3449 80.753 47.382 83.9648 44.1812C87.1766 40.9803 91.153 39.3037 95.8942 39.3037C100.635 39.3037 104.612 40.9803 107.824 44.1812C111.188 47.382 112.718 51.3449 112.718 56.07ZM107.671 56.07C107.671 52.7167 106.6 49.9731 104.306 47.6868C102.012 45.4005 99.2589 44.3336 95.8942 44.3336C92.5295 44.3336 89.7766 45.4005 87.4825 47.6868C85.1883 49.9731 84.1177 52.7167 84.1177 56.07C84.1177 59.4232 85.1883 62.1668 87.4825 64.4531C89.7766 66.7394 92.5295 67.8063 95.8942 67.8063C99.2589 67.8063 102.012 66.7394 104.306 64.4531C106.6 62.1668 107.671 59.4232 107.671 56.07Z" fill="black"/>
<path d="M136.424 70.3961C136.424 71.1582 136.118 71.7679 135.659 72.2252C135.2 72.6824 134.588 72.9873 133.824 72.9873C132.906 72.9873 132.141 72.53 131.682 71.7679L124.188 58.8122H120.365V70.5485C120.365 71.3106 120.059 71.9203 119.6 72.3776C119.141 72.8348 118.529 73.1397 117.765 73.1397C117 73.1397 116.388 72.8348 115.929 72.3776C115.471 71.9203 115.165 71.3106 115.165 70.5485V42.6556C115.165 41.8935 115.471 41.2838 115.929 40.8266C116.388 40.3693 117 40.0645 117.765 40.0645H127.094C129.694 40.0645 131.835 40.979 133.671 42.808C135.506 44.6371 136.424 46.7709 136.424 49.3621C136.424 51.496 135.812 53.325 134.588 55.0017C133.365 56.6783 131.682 57.7452 129.694 58.3549L135.965 69.3292C136.271 69.634 136.424 70.0913 136.424 70.3961ZM131.376 49.3621C131.376 48.1427 130.918 47.2282 130.153 46.3137C129.388 45.5516 128.318 45.0943 127.094 45.0943H120.365V53.4774H127.094C128.318 53.4774 129.235 53.0202 130.153 52.2581C130.918 51.496 131.376 50.429 131.376 49.3621Z" fill="black"/>
<path d="M234 27.872C234 22.08 229.259 17.355 223.447 17.355H200.812V11.4106C200.812 5.61859 196.071 0.893555 190.259 0.893555H153.553C153.247 0.893555 152.941 0.893555 152.635 1.04598C147.741 1.9605 144.071 6.22827 144.071 11.4106V17.6598C139.177 18.5743 136.024 22.8189 136.024 28.0012C136.024 33.0311 139.177 37.1428 144.071 38.2098V61.0996C144.585 62.1285 145.264 63.0765 146.488 63.0765H148.2V69.3303C148.2 70.5497 149.83 70.6603 151.054 70.6603H158.854C160.077 70.6603 159.805 70.5497 159.805 69.3303V63.0765H168.082V69.3303C168.082 70.5497 169.045 70.6603 170.268 70.6603H178.068C179.292 70.6603 179.78 70.5497 179.78 69.3303V63.0765H181.694H187.047V69.3303C187.047 70.5497 188.069 70.6603 189.293 70.6603H197.093C198.316 70.6603 198.805 70.5497 198.805 69.3303V63.0765H210.294V69.3303C210.294 70.5497 211.365 70.6686 212.588 70.6686L220.683 70.6603C221.906 70.6603 221.634 70.9317 221.634 69.7123V63.0765H223.537C224.148 63.0765 224.98 62.4333 225.439 62.1285C225.439 61.1805 225.588 61.6828 225.588 61.0731L225.439 51.7007C227.274 49.8716 228.293 46.8604 228.293 44.1168C228.293 41.6781 227.767 39.8788 226.39 38.0498C230.214 36.5256 234 32.597 234 27.872Z" fill="url(#paint0_linear_81_316)"/>
<path d="M234 27.872C234 22.0801 229.259 17.355 223.447 17.355H214.577C216.106 18.422 215.647 19.9462 216.259 21.7752C217.482 25.8906 217.177 30.768 214.424 33.9689C213.047 35.4931 211.212 36.2552 209.224 36.1027C208 36.7124 206.471 37.0173 204.941 36.7124C200.965 36.2552 198.518 33.0543 198.365 29.2438C198.059 25.2809 199.741 20.4034 202.953 17.9647C203.259 17.6599 203.565 17.5075 203.871 17.2026H200.707V10.9376C200.707 5.14564 195.951 1.45781 190.412 0.741211H155.235C155.541 1.35089 155.694 2.11299 155.847 2.72268C156.153 2.8751 156.612 3.02752 156.918 3.17994C157.682 3.48478 158.294 4.09446 158.906 4.70414C159.059 4.85656 159.365 5.1614 159.518 5.31382C160.741 6.68561 161.506 7.90497 162.118 9.73402C162.73 11.4106 162.73 13.2397 162.271 14.9163C162.118 15.6784 161.812 16.5929 161.353 17.2026C161.047 17.6599 160.894 17.9647 160.588 18.422C162.424 18.8792 163.953 19.9462 164.871 21.7752C165.941 23.7567 166.247 25.2809 166.553 27.5672C166.706 29.7011 165.941 31.5301 164.565 32.7495C168.541 31.9874 172.365 33.5116 173.741 37.9318C175.424 43.4189 176.8 50.1254 174.353 55.6126C174.047 56.2222 173.741 56.8319 173.282 57.4416C173.435 57.7464 173.588 58.0513 173.741 58.3561C173.741 58.5086 173.894 58.661 173.894 58.8134C173.894 58.9658 174.047 59.1182 174.047 59.2707C174.506 60.1852 171.294 64.1481 171.294 65.0626C167.777 65.8247 170.53 69.178 170.53 69.3304C170.835 69.3304 174.506 68.4159 174.2 68.4159L176.341 68.8731C178.482 68.7207 178.677 62.9287 180.207 64.1481V63.2336H187.047V66.282C188.118 63.9957 190.259 62.1666 193.624 62.1666C196.224 62.1666 197.811 63.2336 199.034 64.7578V63.2336H210.141V69.178C210.141 70.3973 211.212 71.4643 212.435 71.4643H220.235C221.634 70.6604 222.156 70.3973 222.156 69.178V63.2336H223.603C223.7 63.2336 223.986 62.9977 224.488 62.6974C225.439 62.1286 225.439 61.7903 225.439 61.1806V51.7008C227.274 49.8717 228.293 46.8605 228.293 44.1169C228.293 41.6782 227.767 39.8789 226.39 38.0499C230.367 36.6781 234 32.5971 234 27.872ZM187.353 51.1924C177.871 53.7835 178.177 32.5971 187.353 35.9503C195.153 38.8463 193.624 49.5157 187.353 51.1924Z" fill="#FED401"/>
<path d="M163.341 8.20973C164.87 10.496 163.953 16.4404 164.106 19.184C168.847 19.0316 176.188 16.7453 179.553 19.4888C184.6 23.909 183.529 30.0059 183.07 35.9502C186.741 35.9502 190.87 35.0357 194.235 35.0357C198.976 34.8833 198.212 34.2736 198.517 29.8534C198.976 25.4332 200.353 21.3179 202.188 17.355H200.707V10.9375C199.756 5.24964 195.951 1.45772 190.412 0.893555H153.706C153.4 0.893555 153.094 0.893555 152.788 1.04598C150.341 1.50324 148.2 2.87502 146.67 4.85649C152.023 1.50324 159.364 2.41776 163.341 8.20973Z" fill="#FED401"/>
<path d="M223.447 21.7757H198.518C197.294 21.7757 196.224 20.7088 196.224 19.4894C196.224 18.2701 197.294 17.2031 198.518 17.2031H223.447C224.671 17.2031 225.741 18.2701 225.741 19.4894C225.741 20.8612 224.824 21.7757 223.447 21.7757Z" fill="black"/>
<path d="M223.447 40.2176C222.224 40.2176 221.153 39.1506 221.153 37.9312C221.153 35.6449 221.153 33.8159 223.447 33.8159C226.812 33.8159 229.412 31.0723 229.412 27.8715C229.412 24.5183 226.659 21.9271 223.447 21.9271C220.082 21.9271 217.482 24.6707 217.482 27.8715C217.482 28.1763 217.482 31.5296 217.482 36.1022C217.482 37.3216 216.412 38.3885 215.188 38.3885C213.965 38.3885 212.894 37.3216 212.894 36.1022C212.894 31.5296 212.741 29.1238 212.894 27.9045C212.894 22.1125 217.635 17.3545 223.447 17.3545C229.259 17.3545 234 22.0795 234 27.8715C234 32.9014 230.482 37.1691 225.741 38.2361C225.741 39.303 224.671 40.2176 223.447 40.2176Z" fill="black"/>
<path d="M223.447 63.2332H215.188C213.965 63.2332 212.894 62.1662 212.894 60.9469V52.7162C212.894 51.4968 213.965 50.4299 215.188 50.4299C216.412 50.4299 217.483 51.4968 217.483 52.7162V58.6606H221.153V50.7347C221.153 49.5153 222.313 48.8564 223.537 48.8564C224.76 48.8564 225.741 49.5153 225.741 50.7347V60.9469C225.741 61.5565 225.436 62.1662 225.13 62.6235C224.671 62.9283 224.059 63.2332 223.447 63.2332Z" fill="black"/>
<path d="M196.377 38.3891C195.765 38.3891 195.306 38.2366 194.847 37.7794C193.929 36.8649 193.776 35.4931 194.694 34.5785C195.612 33.5116 196.224 32.1398 196.224 30.6156V11.2582C196.224 7.90497 193.471 5.31382 190.259 5.31382H153.553C152.329 5.31382 151.259 4.24688 151.259 3.02752C151.259 1.80815 152.329 0.741211 153.553 0.741211H190.259C196.071 0.741211 200.812 5.46625 200.812 11.2582V30.6156C200.812 33.2068 199.894 35.6455 198.059 37.627C197.6 38.0842 196.988 38.3891 196.377 38.3891Z" fill="black"/>
<path d="M162.882 21.7752C161.659 21.7752 160.588 20.7083 160.588 19.4889V11.2582C160.588 7.90497 157.835 5.31382 154.624 5.31382C151.412 5.31382 148.659 8.05739 148.659 11.2582V19.4889C148.659 20.7083 147.588 21.7752 146.365 21.7752C145.141 21.7752 144.071 20.7083 144.071 19.4889V11.2582C144.071 5.46624 148.812 0.741211 154.624 0.741211C160.435 0.741211 165.176 5.46624 165.176 11.2582V19.4889C165.176 20.8607 164.106 21.7752 162.882 21.7752Z" fill="black"/>
<path d="M218.247 55.0019H181.541C180.318 55.0019 179.247 53.9349 179.247 52.7156V36.1017C179.247 34.8824 180.318 33.8154 181.541 33.8154H218.247C224.059 33.8154 228.8 38.5405 228.8 44.3324C228.8 50.2768 224.059 55.0019 218.247 55.0019ZM183.835 50.4293H218.247C221.612 50.4293 224.212 47.6857 224.212 44.4849C224.212 41.1316 221.459 38.5405 218.247 38.5405H183.835V50.4293Z" fill="black"/>
<path d="M182.612 55.0037C181.389 55.0037 180.318 53.9368 180.318 52.7174C180.318 51.4981 181.389 50.4311 182.612 50.4311C185.977 50.4311 188.577 47.6876 188.577 44.4867C188.577 41.1335 185.824 38.5423 182.612 38.5423C181.389 38.5423 180.318 37.4754 180.318 36.256C180.318 35.0367 181.389 33.9697 182.612 33.9697C188.424 33.9697 193.165 38.6948 193.165 44.4867C193.165 50.2787 188.424 55.0037 182.612 55.0037Z" fill="black"/>
<path d="M215.036 63.2337H178.636C177.412 63.2337 176.341 62.1668 176.341 60.9474C176.341 59.7281 177.412 58.6611 178.636 58.6611H215.036C216.259 58.6611 217.33 59.7281 217.33 60.9474C217.33 62.1668 216.259 63.2337 215.036 63.2337Z" fill="black"/>
<path d="M181.541 63.2326H146.365C145.141 63.2326 144.071 62.1656 144.071 60.9463V36.1017C144.071 34.8824 145.141 33.8154 146.365 33.8154C147.588 33.8154 148.659 34.8824 148.659 36.1017V58.66H181.541C182.765 58.66 183.835 59.7269 183.835 60.9463C183.835 62.1656 182.765 63.2326 181.541 63.2326Z" fill="black"/>
<path d="M219.93 71.4654H212.13C210.906 71.4654 209.835 70.3985 209.835 69.1791V60.9484C209.835 59.7291 210.906 58.6621 212.13 58.6621C213.353 58.6621 214.424 59.7291 214.424 60.9484V66.8928H217.635V60.9484C217.635 59.7291 218.706 58.6621 219.93 58.6621C221.153 58.6621 222.224 59.7291 222.224 60.9484V69.1791C222.224 70.5509 221.306 71.4654 219.93 71.4654Z" fill="black"/>
<path d="M196.835 71.4654H189.035C187.812 71.4654 186.741 70.3985 186.741 69.1791V60.9484C186.741 59.7291 187.812 58.6621 189.035 58.6621C190.259 58.6621 191.329 59.7291 191.329 60.9484V66.8928H194.541V60.9484C194.541 59.7291 195.612 58.6621 196.835 58.6621C198.059 58.6621 199.129 59.7291 199.129 60.9484V69.1791C199.129 70.5509 198.059 71.4654 196.835 71.4654Z" fill="black"/>
<path d="M158.141 71.4654H150.341C149.118 71.4654 148.047 70.3985 148.047 69.1791V60.9484C148.047 59.7291 149.118 58.6621 150.341 58.6621C151.565 58.6621 152.636 59.7291 152.636 60.9484V66.8928H155.847V60.9484C155.847 59.7291 156.918 58.6621 158.141 58.6621C159.365 58.6621 160.436 59.7291 160.436 60.9484V69.1791C160.436 70.5509 159.518 71.4654 158.141 71.4654Z" fill="black"/>
<path d="M178.024 71.4644H170.224C169 71.4644 167.93 70.3975 167.93 69.1781V60.9474C167.93 59.7281 169 58.6611 170.224 58.6611C171.447 58.6611 172.518 59.7281 172.518 60.9474V66.8918H175.73V60.9474C175.73 59.7281 176.8 58.6611 178.024 58.6611C179.247 58.6611 180.318 59.7281 180.318 60.9474V69.1781C180.318 70.5499 179.247 71.4644 178.024 71.4644Z" fill="black"/>
<path d="M173.129 38.3885H146.059C140.247 38.3885 135.506 33.6635 135.506 27.8715C135.506 22.0795 140.247 17.3545 146.059 17.3545H173.129C174.353 17.3545 175.424 18.4214 175.424 19.6408C175.424 20.8602 174.353 21.9271 173.129 21.9271H146.059C142.694 21.9271 140.094 24.6707 140.094 27.8715C140.094 31.2248 142.847 33.8159 146.059 33.8159H173.129C174.353 33.8159 175.424 34.8828 175.424 36.1022C175.424 37.3216 174.506 38.3885 173.129 38.3885Z" fill="black"/>
<path d="M181.541 63.2341H173.282C172.059 63.2341 170.988 62.1671 170.988 60.9478V38.0847C166.247 37.0178 162.729 32.75 162.729 27.7201C162.729 21.9282 167.471 17.2031 173.282 17.2031C179.094 17.2031 183.835 21.9282 183.835 27.7201V60.7954C183.835 62.1671 182.765 63.2341 181.541 63.2341ZM175.423 58.6615H179.094V27.8726C179.094 24.5193 176.341 21.9282 173.129 21.9282C169.765 21.9282 167.165 24.6717 167.165 27.8726C167.165 31.2258 169.918 33.8169 173.129 33.8169C174.353 33.8169 175.423 34.8839 175.423 36.1033V58.6615Z" fill="black"/>
<defs>
<linearGradient id="paint0_linear_81_316" x1="174.616" y1="-10.6018" x2="194.372" y2="64.6254" gradientUnits="userSpaceOnUse">
<stop stop-color="#FED401"/>
<stop offset="1" stop-color="#B26B28"/>
</linearGradient>
</defs>
</svg>
