<svg width="300" height="93" viewBox="0 0 300 93" fill="none" xmlns="http://www.w3.org/2000/svg">
<path d="M27.0588 32.0477C27.0588 35.3697 25.8823 38.1054 23.5294 40.4503C21.1765 42.7953 18.4314 43.9677 15.098 43.9677C13.5294 43.9677 12.1569 43.7723 10.9804 43.3815L2.94117 40.4503C1.56863 39.8641 0.784312 38.8871 0.784312 37.5192C0.784312 36.5421 1.17647 35.7605 1.7647 35.1742C2.35294 34.588 3.13725 34.1972 4.11765 34.1972L5.09804 34.3926L13.1372 37.3238C13.7255 37.5192 14.3137 37.5192 15.098 37.5192C16.6667 37.5192 17.8431 36.9329 19.0196 35.9559C20 34.9788 20.5882 33.611 20.5882 32.0477C20.5882 29.5073 19.4118 27.9441 17.0588 26.967L7.84313 23.645C5.49019 22.8634 3.52941 21.3001 2.15686 19.346C0.784314 17.3919 0 15.0469 0 12.5066C0 9.18462 1.17647 6.44887 3.52941 4.10394C5.88235 1.75901 8.62745 0.586548 11.9608 0.586548C13.5294 0.586548 14.9019 0.781959 16.0784 1.17278L23.1372 3.71312C24.5098 4.29935 25.2941 5.2764 25.2941 6.83969C25.2941 7.62133 24.9019 8.40298 24.3137 9.18462C23.7255 9.77085 22.9412 10.1617 21.9608 10.1617C21.5686 10.1617 21.1765 10.1617 20.9804 9.96626L13.9216 7.42592C13.3333 7.23051 12.7451 7.23051 11.9608 7.23051C10.3922 7.23051 9.21568 7.81674 8.03921 8.7938C7.05882 9.77085 6.47058 11.1387 6.47058 12.702C6.47058 15.2424 7.64705 16.8056 9.99999 17.5873L19.2157 20.9093C21.5686 21.6909 23.5294 23.2542 24.9019 25.2083C26.2745 27.3578 27.0588 29.5073 27.0588 32.0477Z" fill="black"/>
<path d="M70.9803 40.6461C70.9803 41.6231 70.5882 42.4048 69.9999 42.991C69.4117 43.5772 68.6274 43.9681 67.647 43.9681C66.6666 43.9681 65.8823 43.5772 65.294 42.991C64.7058 42.4048 64.5097 41.6231 64.5097 40.6461V16.0243L53.3333 35.1746C52.745 36.347 51.7646 36.7379 50.5882 36.7379C49.4117 36.7379 48.4313 36.1516 47.8431 35.1746L36.6666 16.0243V40.6461C36.6666 41.6231 36.2744 42.4048 35.6862 42.991C35.098 43.5772 34.3137 43.9681 33.3333 43.9681C32.3529 43.9681 31.5686 43.5772 30.9803 42.991C30.3921 42.4048 29.9999 41.6231 29.9999 40.6461V3.90886C29.9999 3.12722 30.3921 2.34557 30.9803 1.75934C31.5686 1.17311 32.3529 0.782288 33.1372 0.782288C34.3137 0.782288 35.2941 1.36852 36.0784 2.54098L50.5882 26.9673L65.098 2.54098C65.6862 1.36852 66.6666 0.782288 67.8431 0.782288C68.8234 0.782288 69.6078 0.977698 70.196 1.56393C70.7842 2.15016 71.1764 2.93181 71.1764 3.71345V40.6461H70.9803Z" fill="black"/>
<path d="M103.726 40.6457C103.726 41.6227 103.333 42.4044 102.745 42.9906C102.157 43.5768 101.373 43.9677 100.392 43.9677C98.8236 43.9677 97.8432 43.186 97.255 41.8181L94.1177 32.243H82.5491L79.6079 41.6227C79.0197 43.186 78.0393 44.1631 76.4707 44.1631C75.4903 44.1631 74.706 43.7723 74.1177 43.186C73.5295 42.5998 73.1373 41.8181 73.1373 40.8411L73.3334 40.0594L85.2942 3.32223C85.6863 1.75894 86.8628 0.977295 88.2354 0.977295C89.804 0.977295 90.7844 1.75894 91.1765 3.32223L103.726 40.6457ZM92.353 25.5991L88.8236 14.4606L85.0981 25.5991H92.353Z" fill="black"/>
<path d="M133.333 40.6459C133.333 41.6229 132.941 42.4046 132.353 42.9908C131.765 43.577 130.98 43.9679 130 43.9679C128.824 43.9679 127.843 43.3816 127.255 42.4046L117.647 25.5993H112.745V40.6459C112.745 41.6229 112.353 42.4046 111.765 42.9908C111.176 43.577 110.392 43.9679 109.412 43.9679C108.431 43.9679 107.647 43.577 107.059 42.9908C106.471 42.4046 106.078 41.6229 106.078 40.6459V5.08114C106.078 4.10408 106.471 3.32244 107.059 2.73621C107.647 2.14998 108.431 1.75916 109.412 1.75916H121.373C124.706 1.75916 127.451 2.93162 129.804 5.27655C132.157 7.62148 133.333 10.3572 133.333 13.6792C133.333 16.415 132.549 18.7599 130.98 20.9094C129.412 23.0589 127.255 24.4268 124.706 25.2084L132.745 39.278C133.137 39.8643 133.333 40.2551 133.333 40.6459ZM126.863 13.6792C126.863 12.1159 126.275 10.9435 125.294 9.77099C124.314 8.79394 122.941 8.20771 121.373 8.20771H112.745V18.9553H121.373C122.941 18.9553 124.118 18.3691 125.294 17.392C126.275 16.415 126.863 15.2425 126.863 13.6792Z" fill="black"/>
<path d="M167.255 5.08114C167.255 6.05819 166.863 6.83983 166.274 7.42607C165.686 8.0123 164.902 8.40312 163.921 8.40312H154.118V40.8413C154.118 41.8184 153.725 42.6 153.137 43.1862C152.549 43.7725 151.765 44.1633 150.784 44.1633C149.804 44.1633 149.019 43.7725 148.431 43.1862C147.843 42.6 147.451 41.8184 147.451 40.8413V8.40312H137.647C136.667 8.40312 135.882 8.0123 135.294 7.42607C134.706 6.83983 134.314 6.05819 134.314 5.08114C134.314 4.10408 134.706 3.32244 135.294 2.73621C135.882 2.14998 136.667 1.75916 137.647 1.75916H163.725C164.706 1.75916 165.49 2.14998 166.078 2.73621C167.059 3.51785 167.255 4.10408 167.255 5.08114Z" fill="black"/>
<path d="M32.549 70.9341C32.549 76.601 30.5882 81.4863 26.4706 85.3945C22.549 89.3027 17.6471 91.4522 11.9608 91.4522H3.33333C2.35294 91.4522 1.56863 91.0614 0.980392 90.4752C0.392157 89.8889 0 89.1073 0 88.1302V53.7379C0 52.7609 0.392157 51.9792 0.980392 51.393C1.56863 50.8068 2.35294 50.416 3.33333 50.416H11.9608C17.6471 50.416 22.549 52.3701 26.4706 56.4737C30.3921 60.3819 32.549 65.2672 32.549 70.9341ZM25.8823 70.9341C25.8823 67.0259 24.5098 63.7039 21.7647 60.9681C19.0196 58.2324 15.6863 56.8645 11.7647 56.8645H6.2745V85.0037H11.7647C15.6863 85.0037 19.0196 83.6358 21.7647 80.9C24.7059 78.1643 25.8823 74.8423 25.8823 70.9341Z" fill="black"/>
<path d="M60 88.1302C60 89.1073 59.6078 89.8889 59.0196 90.4752C58.4314 91.0614 57.6471 91.4522 56.6667 91.4522H40.3922C39.4118 91.4522 38.6275 91.0614 38.0392 90.4752C37.451 89.8889 37.0588 89.1073 37.0588 88.1302V53.7379C37.0588 52.7609 37.451 51.9792 38.0392 51.393C38.6275 50.8068 39.4118 50.416 40.3922 50.416H56.6667C57.6471 50.416 58.4314 50.8068 59.0196 51.393C59.6078 51.9792 60 52.7609 60 53.7379C60 54.715 59.6078 55.4966 59.0196 56.0829C58.4314 56.6691 57.6471 57.0599 56.6667 57.0599H43.5294V67.8075H52.1569C53.1373 67.8075 53.9216 68.1983 54.5098 68.7846C55.098 69.3708 55.4902 70.1524 55.4902 71.1295C55.4902 72.1065 55.098 72.8882 54.5098 73.4744C53.9216 74.0607 53.1373 74.4515 52.1569 74.4515H43.5294V85.1991H56.6667C57.6471 85.1991 58.4314 85.5899 59.0196 86.1761C59.8039 86.5669 60 87.3486 60 88.1302Z" fill="black"/>
<path d="M99.4117 83.8312C99.4117 84.8082 99.0195 85.5899 98.4313 86.1761C94.3137 90.4752 89.2156 92.4293 83.3333 92.4293C77.2548 92.4293 72.1568 90.2797 68.0392 86.1761C63.9215 82.0725 61.7646 76.7964 61.7646 70.9341C61.7646 64.8764 63.9215 59.7957 68.0392 55.692C72.1568 51.5884 77.2548 49.4389 83.3333 49.4389C89.2156 49.4389 94.3137 51.5884 98.4313 55.8875C99.0195 56.4737 99.4117 57.2553 99.4117 58.037C99.4117 59.014 99.0195 59.7957 98.4313 60.3819C97.8431 60.9681 97.0588 61.359 96.0784 61.359C95.294 61.359 94.5097 61.1635 93.9215 60.5773C90.7842 57.6462 87.2548 56.0829 83.3333 56.0829C79.0195 56.0829 75.4901 57.4507 72.549 60.3819C69.6078 63.3131 68.2352 66.8305 68.2352 71.1295C68.2352 75.4285 69.6078 78.9459 72.549 81.8771C75.4901 84.8082 79.0195 86.1761 83.3333 86.1761C87.2548 86.1761 90.7842 84.6128 93.9215 81.6817C94.5097 81.0954 95.294 80.7046 96.0784 80.7046C97.0588 80.7046 97.8431 81.0954 98.4313 81.6817C99.2156 82.2679 99.4117 83.0495 99.4117 83.8312Z" fill="black"/>
<path d="M144.51 70.9341C144.51 76.9918 142.353 82.0725 138.235 86.1761C134.118 90.2797 129.02 92.4293 122.941 92.4293C116.863 92.4293 111.765 90.2797 107.647 86.1761C103.529 82.0725 101.372 76.7964 101.372 70.9341C101.372 64.8764 103.529 59.7957 107.647 55.692C111.765 51.5884 116.863 49.4389 122.941 49.4389C129.02 49.4389 134.118 51.5884 138.235 55.692C142.549 59.7957 144.51 64.8764 144.51 70.9341ZM138.039 70.9341C138.039 66.635 136.667 63.1177 133.725 60.1865C130.784 57.2553 127.255 55.8875 122.941 55.8875C118.627 55.8875 115.098 57.2553 112.157 60.1865C109.216 63.1177 107.843 66.635 107.843 70.9341C107.843 75.2331 109.216 78.7505 112.157 81.6817C115.098 84.6128 118.627 85.9807 122.941 85.9807C127.255 85.9807 130.784 84.6128 133.725 81.6817C136.667 78.7505 138.039 75.2331 138.039 70.9341Z" fill="black"/>
<path d="M174.902 89.3027C174.902 90.2797 174.51 91.0614 173.922 91.6476C173.333 92.2338 172.549 92.6247 171.569 92.6247C170.392 92.6247 169.412 92.0384 168.824 91.0614L159.216 74.4515H154.314V89.4981C154.314 90.4752 153.922 91.2568 153.333 91.843C152.745 92.4293 151.961 92.8201 150.98 92.8201C150 92.8201 149.216 92.4293 148.627 91.843C148.039 91.2568 147.647 90.4752 147.647 89.4981V53.7379C147.647 52.7609 148.039 51.9792 148.627 51.393C149.216 50.8068 150 50.416 150.98 50.416H162.941C166.275 50.416 169.02 51.5884 171.373 53.9333C173.726 56.2783 174.902 59.014 174.902 62.336C174.902 65.0718 174.118 67.4167 172.549 69.5662C170.98 71.7157 168.824 73.0836 166.275 73.8652L174.314 87.9348C174.706 88.3256 174.902 88.9119 174.902 89.3027ZM168.431 62.336C168.431 60.7727 167.843 59.6003 166.863 58.4278C165.882 57.4507 164.51 56.8645 162.941 56.8645H154.314V67.6121H162.941C164.51 67.6121 165.686 67.0259 166.863 66.0488C167.843 65.0718 168.431 63.7039 168.431 62.336Z" fill="black"/>
<path d="M300 34.7837C300 27.3581 293.922 21.3004 286.471 21.3004H257.451V13.6794C257.451 6.25378 251.373 0.196045 243.922 0.196045H196.863C196.471 0.196045 196.079 0.196046 195.686 0.391456C189.412 1.56392 184.706 7.03542 184.706 13.6794V21.6912C178.431 22.8637 174.39 28.3054 174.39 34.9494C174.39 41.398 178.431 46.6695 184.706 48.0373V77.3833C185.366 78.7023 186.236 79.9177 187.805 79.9177H190V87.9355C190 89.4988 192.09 89.6406 193.659 89.6406H203.659C205.227 89.6406 204.878 89.4988 204.878 87.9355V79.9177H215.49V87.9355C215.49 89.4988 216.724 89.6406 218.293 89.6406H228.293C229.861 89.6406 230.488 89.4988 230.488 87.9355V79.9177H232.941H239.804V87.9355C239.804 89.4988 241.114 89.6406 242.683 89.6406H252.683C254.252 89.6406 254.878 89.4988 254.878 87.9355V79.9177H269.608V87.9355C269.608 89.4988 270.98 89.6513 272.549 89.6513L282.927 89.6406C284.495 89.6406 284.146 89.9885 284.146 88.4252V79.9177H286.585C287.37 79.9177 288.436 79.0932 289.024 78.7023C289.024 77.487 289.216 78.1309 289.216 77.3493L289.024 65.3334C291.377 62.9885 292.683 59.1279 292.683 55.6105C292.683 52.4839 292.009 50.1771 290.244 47.8322C295.146 45.8781 300 40.8415 300 34.7837Z" fill="url(#paint0_linear_1136_73)"/>
<path d="M300 34.7831C300 27.3575 293.922 21.2998 286.471 21.2998H275.098C277.059 22.6676 276.471 24.6218 277.255 26.9667C278.823 32.2428 278.431 38.4959 274.902 42.5995C273.137 44.5536 270.784 45.5307 268.235 45.3353C266.667 46.1169 264.706 46.5078 262.745 46.1169C257.647 45.5307 254.51 41.4271 254.314 36.5418C253.922 31.4611 256.078 25.208 260.196 22.0814C260.588 21.6906 260.98 21.4952 261.372 21.1044H257.317V13.0723C257.317 5.6467 251.219 0.918715 244.118 0H199.02C199.412 0.781643 199.608 1.7587 199.804 2.54034C200.196 2.73575 200.784 2.93116 201.176 3.12657C202.157 3.51739 202.941 4.29904 203.725 5.08068C203.922 5.27609 204.314 5.66691 204.51 5.86232C206.078 7.62102 207.059 9.18431 207.843 11.5292C208.627 13.6788 208.627 16.0237 208.039 18.1732C207.843 19.1503 207.451 20.3227 206.863 21.1044C206.471 21.6906 206.274 22.0814 205.882 22.6676C208.235 23.2539 210.196 24.6218 211.373 26.9667C212.745 29.507 213.137 31.4611 213.529 34.3923C213.725 37.128 212.745 39.473 210.98 41.0363C216.078 40.0592 220.98 42.0133 222.745 47.6802C224.902 54.715 226.667 63.3131 223.529 70.3479C223.137 71.1295 222.745 71.9111 222.157 72.6928C222.353 73.0836 222.549 73.4744 222.745 73.8653C222.745 74.0607 222.941 74.2561 222.941 74.4515C222.941 74.6469 223.137 74.8423 223.137 75.0377C223.725 76.2102 219.608 81.2908 219.608 82.4633C215.098 83.4404 218.627 87.7394 218.627 87.9348C219.02 87.9348 223.725 86.7624 223.333 86.7624L226.078 87.3486C228.823 87.1532 229.073 79.7276 231.034 81.2909V80.1184H239.804V84.0266C241.176 81.0954 243.922 78.7505 248.235 78.7505C251.569 78.7505 253.603 80.1184 255.172 82.0725V80.1184H269.412V87.7394C269.412 89.3027 270.784 90.6706 272.353 90.6706H282.353C284.146 89.6399 284.815 89.3027 284.815 87.7394V80.1184H286.67C286.795 80.1184 287.161 79.816 287.805 79.4309C289.024 78.7017 289.024 78.268 289.024 77.4864V65.3328C291.377 62.9878 292.683 59.1273 292.683 55.6099C292.683 52.4833 292.009 50.1765 290.244 47.8316C295.342 46.0729 300 40.8408 300 34.7831ZM240.196 64.6809C228.039 68.0029 228.431 40.8408 240.196 45.1399C250.196 48.8527 248.235 62.5314 240.196 64.6809Z" fill="#FED401"/>
<path d="M209.412 9.57576C211.373 12.5069 210.196 20.1279 210.392 23.6453C216.471 23.4499 225.882 20.5188 230.196 24.0362C236.667 29.7031 235.294 37.5195 234.706 45.1405C239.412 45.1405 244.706 43.968 249.02 43.968C255.098 43.7726 254.118 42.991 254.51 37.3241C255.098 31.6572 256.863 26.3811 259.216 21.3004H257.317V13.0729C256.097 5.78077 251.219 0.919334 244.118 0.196045H197.059C196.667 0.196045 196.274 0.196046 195.882 0.391456C192.745 0.977689 190 2.73638 188.039 5.27672C194.902 0.977688 204.314 2.15015 209.412 9.57576Z" fill="#FED401"/>
<path d="M286.47 26.9681H254.51C252.941 26.9681 251.568 25.5999 251.568 24.0362C251.568 22.4726 252.941 21.1044 254.51 21.1044H286.47C288.039 21.1044 289.412 22.4726 289.412 24.0362C289.412 25.7953 288.235 26.9681 286.47 26.9681Z" fill="black"/>
<path d="M286.47 50.6113C284.902 50.6113 283.529 49.2434 283.529 47.6801C283.529 44.749 283.529 42.404 286.47 42.404C290.784 42.404 294.118 38.8867 294.118 34.783C294.118 30.484 290.588 27.162 286.47 27.162C282.157 27.162 278.823 30.6794 278.823 34.783C278.823 35.1738 278.823 39.4729 278.823 45.3352C278.823 46.8985 277.451 48.2664 275.882 48.2664C274.314 48.2664 272.941 46.8985 272.941 45.3352C272.941 39.4729 272.745 36.3886 272.941 34.8253C272.941 27.3997 279.02 21.2997 286.47 21.2997C293.921 21.2997 300 27.3574 300 34.783C300 41.2316 295.49 46.7031 289.412 48.071C289.412 49.4388 288.039 50.6113 286.47 50.6113Z" fill="black"/>
<path d="M286.471 80.1184H275.882C274.314 80.1184 272.941 78.7505 272.941 77.1872V66.6351C272.941 65.0718 274.314 63.7039 275.882 63.7039C277.451 63.7039 278.824 65.0718 278.824 66.6351V74.2561H283.529V64.0947C283.529 62.5314 285.017 61.6867 286.585 61.6867C288.154 61.6867 289.412 62.5314 289.412 64.0947V77.1872C289.412 77.9689 289.02 78.7505 288.627 79.3368C288.039 79.7276 287.255 80.1184 286.471 80.1184Z" fill="black"/>
<path d="M251.765 48.2664C250.98 48.2664 250.392 48.071 249.804 47.4848C248.627 46.3123 248.431 44.5536 249.608 43.3812C250.784 42.0133 251.569 40.2546 251.569 38.3005V13.4833C251.569 9.18431 248.039 5.86232 243.922 5.86232H196.863C195.294 5.86232 193.922 4.49445 193.922 2.93116C193.922 1.36788 195.294 0 196.863 0H243.922C251.373 0 257.451 6.05773 257.451 13.4833V38.3005C257.451 41.6225 256.274 44.7491 253.922 47.2894C253.333 47.8756 252.549 48.2664 251.765 48.2664Z" fill="black"/>
<path d="M208.824 26.9667C207.255 26.9667 205.882 25.5988 205.882 24.0355V13.4833C205.882 9.1843 202.353 5.86232 198.235 5.86232C194.118 5.86232 190.588 9.37972 190.588 13.4833V24.0355C190.588 25.5988 189.216 26.9667 187.647 26.9667C186.078 26.9667 184.706 25.5988 184.706 24.0355V13.4833C184.706 6.05773 190.784 0 198.235 0C205.686 0 211.765 6.05773 211.765 13.4833V24.0355C211.765 25.7942 210.392 26.9667 208.824 26.9667Z" fill="black"/>
<path d="M279.804 69.5663H232.745C231.176 69.5663 229.804 68.1984 229.804 66.6351V45.3353C229.804 43.772 231.176 42.4042 232.745 42.4042H279.804C287.255 42.4042 293.333 48.4619 293.333 55.8875C293.333 63.5085 287.255 69.5663 279.804 69.5663ZM235.686 63.7039H279.804C284.118 63.7039 287.451 60.1865 287.451 56.0829C287.451 51.7839 283.921 48.4619 279.804 48.4619H235.686V63.7039Z" fill="black"/>
<path d="M234.118 69.5662C232.549 69.5662 231.176 68.1983 231.176 66.635C231.176 65.0717 232.549 63.7038 234.118 63.7038C238.431 63.7038 241.765 60.1864 241.765 56.0828C241.765 51.7838 238.235 48.4618 234.118 48.4618C232.549 48.4618 231.176 47.0939 231.176 45.5306C231.176 43.9674 232.549 42.5995 234.118 42.5995C241.569 42.5995 247.647 48.6572 247.647 56.0828C247.647 63.5084 241.569 69.5662 234.118 69.5662Z" fill="black"/>
<path d="M275.686 80.1198H229.02C227.451 80.1198 226.078 78.7516 226.078 77.1879C226.078 75.6242 227.451 74.256 229.02 74.256H275.686C277.255 74.256 278.627 75.6242 278.627 77.1879C278.627 78.7516 277.255 80.1198 275.686 80.1198Z" fill="black"/>
<path d="M232.745 80.1185H187.647C186.078 80.1185 184.706 78.7506 184.706 77.1873V45.3353C184.706 43.772 186.078 42.4042 187.647 42.4042C189.216 42.4042 190.588 43.772 190.588 45.3353V74.2561H232.745C234.314 74.2561 235.686 75.624 235.686 77.1873C235.686 78.7506 234.314 80.1185 232.745 80.1185Z" fill="black"/>
<path d="M281.961 90.6705H271.961C270.392 90.6705 269.02 89.3027 269.02 87.7394V77.1872C269.02 75.6239 270.392 74.256 271.961 74.256C273.529 74.256 274.902 75.6239 274.902 77.1872V84.8082H279.02V77.1872C279.02 75.6239 280.392 74.256 281.961 74.256C283.529 74.256 284.902 75.6239 284.902 77.1872V87.7394C284.902 89.4981 283.725 90.6705 281.961 90.6705Z" fill="black"/>
<path d="M252.353 90.6705H242.353C240.784 90.6705 239.412 89.3027 239.412 87.7394V77.1872C239.412 75.6239 240.784 74.256 242.353 74.256C243.921 74.256 245.294 75.6239 245.294 77.1872V84.8082H249.412V77.1872C249.412 75.6239 250.784 74.256 252.353 74.256C253.921 74.256 255.294 75.6239 255.294 77.1872V87.7394C255.294 89.4981 253.921 90.6705 252.353 90.6705Z" fill="black"/>
<path d="M202.745 90.6705H192.745C191.177 90.6705 189.804 89.3027 189.804 87.7394V77.1872C189.804 75.6239 191.177 74.256 192.745 74.256C194.314 74.256 195.686 75.6239 195.686 77.1872V84.8082H199.804V77.1872C199.804 75.6239 201.177 74.256 202.745 74.256C204.314 74.256 205.686 75.6239 205.686 77.1872V87.7394C205.686 89.4981 204.51 90.6705 202.745 90.6705Z" fill="black"/>
<path d="M228.235 90.6705H218.235C216.667 90.6705 215.294 89.3027 215.294 87.7394V77.1872C215.294 75.6239 216.667 74.256 218.235 74.256C219.804 74.256 221.176 75.6239 221.176 77.1872V84.8082H225.294V77.1872C225.294 75.6239 226.667 74.256 228.235 74.256C229.804 74.256 231.176 75.6239 231.176 77.1872V87.7394C231.176 89.4981 229.804 90.6705 228.235 90.6705Z" fill="black"/>
<path d="M221.961 48.2664H187.255C179.804 48.2664 173.726 42.2086 173.726 34.783C173.726 27.3574 179.804 21.2997 187.255 21.2997H221.961C223.529 21.2997 224.902 22.6676 224.902 24.2308C224.902 25.7941 223.529 27.162 221.961 27.162H187.255C182.941 27.162 179.608 30.6794 179.608 34.783C179.608 39.0821 183.137 42.404 187.255 42.404H221.961C223.529 42.404 224.902 43.7719 224.902 45.3352C224.902 46.8985 223.726 48.2664 221.961 48.2664Z" fill="black"/>
<path d="M232.745 80.1184H222.157C220.588 80.1184 219.216 78.7505 219.216 77.1873V47.8756C213.137 46.5078 208.627 41.0363 208.627 34.5877C208.627 27.1621 214.706 21.1044 222.157 21.1044C229.608 21.1044 235.686 27.1621 235.686 34.5877V76.9918C235.686 78.7505 234.314 80.1184 232.745 80.1184ZM224.902 74.2561H229.608V34.7831C229.608 30.4841 226.078 27.1621 221.961 27.1621C217.647 27.1621 214.314 30.6795 214.314 34.7831C214.314 39.0822 217.843 42.4041 221.961 42.4041C223.529 42.4041 224.902 43.772 224.902 45.3353V74.2561Z" fill="black"/>
<defs>
<linearGradient id="paint0_linear_1136_73" x1="223.867" y1="-14.5416" x2="249.195" y2="81.9035" gradientUnits="userSpaceOnUse">
<stop stop-color="#FED401"/>
<stop offset="1" stop-color="#B26B28"/>
</linearGradient>
</defs>
</svg>
