<svg width="22" height="22" viewBox="0 0 22 22" fill="none" xmlns="http://www.w3.org/2000/svg">
<rect x="0.5" y="2.5" width="20.0084" height="19" rx="3.53361" stroke="#31302E"/>
<path d="M8.834 17.856L8.034 18.456L8.05661 18.4861L8.08142 18.5145L8.834 17.856ZM8.636 17.55L7.71198 17.9324L7.73395 17.9854L7.76184 18.0356L8.636 17.55ZM5.18 9.198L4.23132 9.51423L4.24248 9.54773L4.25598 9.58035L5.18 9.198ZM5.288 8.766L5.99511 9.47311L5.99511 9.47311L5.288 8.766ZM9.032 8.784L8.27942 9.4425L8.30135 9.46756L8.32489 9.49111L9.032 8.784ZM9.23 9.072L10.1758 8.74726L10.1713 8.734L10.1663 8.72088L9.23 9.072ZM10.67 13.266L9.7242 13.5907L10.67 16.3454L11.6158 13.5907L10.67 13.266ZM12.11 9.072L11.1737 8.72087L11.1687 8.734L11.1642 8.74726L12.11 9.072ZM12.29 8.784L11.5829 8.07689L11.5593 8.10044L11.5374 8.1255L12.29 8.784ZM16.052 8.766L15.3449 9.4731L15.3449 9.47311L16.052 8.766ZM16.16 9.198L17.084 9.58035L17.0975 9.54773L17.1087 9.51424L16.16 9.198ZM12.704 17.55L13.6178 17.9561L13.6231 17.9443L13.628 17.9324L12.704 17.55ZM9.23 17C9.22531 17 9.26826 16.9989 9.33774 17.0242C9.41383 17.0519 9.5066 17.1061 9.58658 17.1975L8.08142 18.5145C8.42335 18.9053 8.88419 19 9.23 19V17ZM9.634 17.256C9.59008 17.1974 9.54872 17.1338 9.51016 17.0644L7.76184 18.0356C7.84328 18.1822 7.93392 18.3226 8.034 18.456L9.634 17.256ZM9.56002 17.1676L6.10402 8.81565L4.25598 9.58035L7.71198 17.9324L9.56002 17.1676ZM6.12868 8.88177C6.1583 8.97063 6.162 9.03965 6.162 9.072H4.162C4.162 9.20035 4.1777 9.35336 4.23132 9.51423L6.12868 8.88177ZM6.162 9.072C6.162 9.13106 6.15113 9.20623 6.11818 9.28625C6.08515 9.36647 6.03921 9.429 5.99511 9.47311L4.58089 8.05889C4.30723 8.33256 4.162 8.68981 4.162 9.072H6.162ZM5.99511 9.47311C5.95101 9.51721 5.88847 9.56314 5.80825 9.59618C5.72823 9.62913 5.65307 9.64 5.594 9.64V7.64C5.21181 7.64 4.85456 7.78523 4.58089 8.05889L5.99511 9.47311ZM5.594 9.64H8.636V7.64H5.594V9.64ZM8.636 9.64C8.64069 9.64 8.59774 9.64106 8.52826 9.61579C8.45217 9.58812 8.3594 9.53391 8.27942 9.4425L9.78458 8.1255C9.44265 7.73472 8.98181 7.64 8.636 7.64V9.64ZM8.32489 9.49111C8.3366 9.50281 8.33618 9.5043 8.32946 9.49453C8.32254 9.48447 8.30777 9.46073 8.29367 9.42312L10.1663 8.72088C10.0667 8.45533 9.90488 8.24267 9.73911 8.07689L8.32489 9.49111ZM8.2842 9.39674L9.7242 13.5907L11.6158 12.9413L10.1758 8.74726L8.2842 9.39674ZM11.6158 13.5907L13.0558 9.39674L11.1642 8.74726L9.7242 12.9413L11.6158 13.5907ZM13.0463 9.42313C13.0386 9.44362 13.0317 9.45525 13.03 9.458C13.0284 9.46058 13.0314 9.45525 13.0426 9.4425L11.5374 8.1255C11.3928 8.29077 11.2608 8.48844 11.1737 8.72087L13.0463 9.42313ZM12.9971 9.49111C12.9304 9.55777 12.8564 9.59879 12.794 9.6205C12.7361 9.64063 12.7009 9.64 12.704 9.64V7.64C12.3482 7.64 11.9214 7.73838 11.5829 8.07689L12.9971 9.49111ZM12.704 9.64H15.746V7.64H12.704V9.64ZM15.746 9.64C15.6869 9.64 15.6118 9.62913 15.5317 9.59618C15.4515 9.56314 15.389 9.51721 15.3449 9.4731L16.7591 8.0589C16.4854 7.78523 16.1282 7.64 15.746 7.64V9.64ZM15.3449 9.47311C15.3008 9.42901 15.2549 9.36647 15.2218 9.28625C15.1889 9.20623 15.178 9.13107 15.178 9.072H17.178C17.178 8.68981 17.0328 8.33256 16.7591 8.05889L15.3449 9.47311ZM15.178 9.072C15.178 9.03965 15.1817 8.97063 15.2113 8.88176L17.1087 9.51424C17.1623 9.35337 17.178 9.20035 17.178 9.072H15.178ZM15.236 8.81565L11.78 17.1676L13.628 17.9324L17.084 9.58035L15.236 8.81565ZM11.7902 17.1439C11.7861 17.1531 11.7765 17.1711 11.7534 17.1975L13.2586 18.5145C13.4035 18.3489 13.5259 18.1629 13.6178 17.9561L11.7902 17.1439ZM11.7534 17.1975C11.8334 17.1061 11.9262 17.0519 12.0023 17.0242C12.0717 16.9989 12.1147 17 12.11 17V19C12.4558 19 12.9166 18.9053 13.2586 18.5145L11.7534 17.1975ZM12.11 17H9.23V19H12.11V17Z" fill="#31302E"/>
</svg>
