<svg width="66" height="66" viewBox="0 0 66 66" fill="none" xmlns="http://www.w3.org/2000/svg">
<rect width="66" height="66" rx="7" fill="#31302E"/>
<path d="M45.9418 53.5966C45.5004 53.5953 45.0604 53.5472 44.6293 53.453C36.4217 51.7648 28.8602 47.8066 22.8153 42.0339C16.8994 36.2486 12.7964 28.8825 11.0027 20.8271C10.7912 19.8231 10.8431 18.7819 11.1534 17.8037C11.4637 16.8255 12.022 15.9431 12.7746 15.2415L18.0246 10.2171C18.2928 9.96497 18.6114 9.77188 18.9597 9.65045C19.308 9.52902 19.6781 9.48198 20.0459 9.5124C20.4273 9.55196 20.7953 9.67411 21.1241 9.87027C21.4529 10.0664 21.7345 10.3318 21.9491 10.6478L28.5116 20.292C28.7577 20.6662 28.8765 21.1091 28.8505 21.5555C28.8245 22.0018 28.6551 22.4281 28.3673 22.7716L25.0728 26.6867C26.3849 29.574 28.243 32.1836 30.546 34.3734C32.8341 36.6426 35.5386 38.4545 38.513 39.711L42.5949 36.4875C42.9377 36.2181 43.3549 36.0588 43.791 36.0309C44.2271 36.0029 44.6614 36.1075 45.0362 36.3309L54.9457 42.6995C55.2857 42.9014 55.5754 43.1772 55.7931 43.5062C56.0107 43.8352 56.1507 44.2089 56.2025 44.5994C56.2542 44.9898 56.2165 45.3868 56.092 45.7607C55.9675 46.1345 55.7596 46.4755 55.4838 46.7582L50.365 51.7956C49.7835 52.3709 49.0934 52.8262 48.3343 53.1353C47.5752 53.4444 46.7621 53.6011 45.9418 53.5966ZM20.0459 11.4325L13.9168 16.9442C13.4934 17.3364 13.18 17.8314 13.0074 18.3806C12.8348 18.9297 12.809 19.5141 12.9324 20.0762C14.6002 27.6352 18.8881 34.9297 24.4247 40.3687C30.1134 45.7997 37.7172 50.2092 45.4405 51.7956C46.0251 51.9171 46.6309 51.8925 47.2036 51.724C47.7763 51.5554 48.2979 51.2482 48.7218 50.8299L54.2893 45.0536L43.791 38.164L39.6335 41.7466C39.4657 41.8787 39.2679 41.9679 39.0575 42.0066C38.847 42.0453 38.6302 42.0322 38.426 41.9685C34.786 40.635 31.5705 38.708 28.8491 35.9594C26.0342 33.3456 24.4341 30.7113 23.0421 27.1407C22.9832 26.9246 22.9812 26.697 23.0364 26.4798C23.0916 26.2627 23.202 26.0633 23.3571 25.9009L26.9134 21.5555L20.0459 11.4325Z" fill="white"/>
</svg>
