<svg width="27" height="27" viewBox="0 0 27 27" fill="none" xmlns="http://www.w3.org/2000/svg">
<path d="M16.8173 19.2188C16.7015 19.2185 16.5861 19.2058 16.4731 19.1811C14.3204 18.7382 12.3373 17.6997 10.7519 16.1851C9.20037 14.6672 8.12427 12.7345 7.65385 10.621C7.59838 10.3576 7.612 10.0844 7.69338 9.82778C7.77477 9.57112 7.92119 9.33962 8.11856 9.15554L9.49549 7.83728C9.56582 7.77112 9.64938 7.72046 9.74072 7.6886C9.83207 7.65674 9.92914 7.6444 10.0256 7.65238C10.1256 7.66276 10.2221 7.69481 10.3084 7.74628C10.3946 7.79774 10.4685 7.86737 10.5247 7.95027L12.2459 10.4806C12.3104 10.5788 12.3416 10.695 12.3348 10.8121C12.328 10.9292 12.2835 11.0411 12.208 11.1312L11.344 12.1584C11.6881 12.916 12.1754 13.6007 12.7795 14.1752C13.3795 14.7706 14.0888 15.2459 14.8689 15.5756L15.9395 14.7299C16.0294 14.6592 16.1388 14.6174 16.2532 14.6101C16.3676 14.6027 16.4815 14.6302 16.5798 14.6888L19.1787 16.3597C19.2679 16.4127 19.3439 16.485 19.401 16.5714C19.458 16.6577 19.4947 16.7557 19.5083 16.8582C19.5219 16.9606 19.512 17.0648 19.4794 17.1629C19.4467 17.261 19.3922 17.3504 19.3198 17.4246L17.9773 18.7463C17.8248 18.8972 17.6438 19.0167 17.4448 19.0978C17.2457 19.1789 17.0324 19.22 16.8173 19.2188ZM10.0256 8.15616L8.41812 9.60226C8.30709 9.70517 8.2249 9.83505 8.17963 9.97914C8.13437 10.1232 8.12758 10.2765 8.15995 10.424C8.59737 12.4073 9.72195 14.3211 11.174 15.7482C12.666 17.1731 14.6602 18.33 16.6858 18.7463C16.8391 18.7782 16.998 18.7717 17.1482 18.7275C17.2984 18.6833 17.4352 18.6027 17.5464 18.4929L19.0066 16.9774L16.2532 15.1697L15.1628 16.1097C15.1188 16.1444 15.0669 16.1678 15.0117 16.1779C14.9565 16.1881 14.8997 16.1846 14.8461 16.1679C13.8915 15.818 13.0481 15.3125 12.3344 14.5913C11.5961 13.9055 11.1765 13.2144 10.8114 12.2775C10.796 12.2208 10.7954 12.1611 10.8099 12.1041C10.8244 12.0472 10.8533 11.9949 10.894 11.9523L11.8267 10.8121L10.0256 8.15616Z" fill="#31302E"/>
<path fill-rule="evenodd" clip-rule="evenodd" d="M7.1138 22.5831C7.04541 22.4958 6.92707 22.4564 6.81579 22.4935L6.74196 22.5181L6.59431 22.5673L6.299 22.6657L5.70837 22.8626L4.52712 23.2564L2.82312 23.8244L3.61102 22.4061L4.17352 21.3936L4.45477 20.8874L4.59538 20.6343L4.5954 20.6343L4.63055 20.571L4.64813 20.5394C4.72057 20.409 4.67363 20.2446 4.54329 20.1722C4.52659 20.1629 4.50933 20.1556 4.49177 20.1502C2.7429 18.0347 2.09821 14.7093 2.47734 11.9728C2.85705 9.23211 4.24417 6.73117 6.36809 4.95788C8.49201 3.18459 11.2004 2.26615 13.9648 2.38174C16.7293 2.49732 19.3515 3.63863 21.32 5.58302C23.2885 7.52741 24.462 10.1354 24.6116 12.8982C24.7612 15.6611 23.8762 18.3805 22.1292 20.5261C20.3822 22.6717 17.8985 24.0895 15.1627 24.503C12.4777 24.9087 9.57015 24.0369 7.1138 22.5831ZM6.88201 23.0406C9.62929 24.9042 12.4172 25.4965 15.2482 25.0686C18.1247 24.6339 20.736 23.1432 22.5728 20.8873C24.4097 18.6314 25.3402 15.7722 25.1829 12.8673C25.0256 9.96244 23.7917 7.22037 21.722 5.17601C19.6524 3.13166 16.8953 1.93167 13.9887 1.81015C11.0822 1.68862 8.23455 2.65428 6.00144 4.51874C3.76833 6.38319 2.3099 9.0127 1.91066 11.8943C1.53212 14.6265 2.1764 18.1117 3.77854 20.2685C3.855 20.3714 3.93365 20.4713 4.01446 20.568L3.98273 20.6251L3.70148 21.1314L3.13898 22.1439L2.18252 23.8655C2.00315 24.1884 2.31422 24.5632 2.66463 24.4464L4.69788 23.7687L5.87913 23.3749L6.46976 23.178L6.76507 23.0796L6.88201 23.0406Z" fill="#31302E"/>
<path fill-rule="evenodd" clip-rule="evenodd" d="M2.7747 20.6443C1.00117 18.0202 0.346623 14.878 0.78167 11.7379C1.2198 8.57558 2.82032 5.68989 5.27098 3.6438C7.72165 1.5977 10.8467 0.537965 14.0364 0.671328C17.2262 0.804691 20.2518 2.12159 22.5232 4.36511C24.7945 6.60863 26.1485 9.61785 26.3212 12.8057C26.4938 15.9936 25.4726 19.1314 23.4569 21.6071C21.4411 24.0828 18.5753 25.7187 15.4186 26.1957C12.2834 26.6695 9.22432 26.0776 6.57943 24.336C6.50109 24.22 6.35514 24.1607 6.21234 24.1989L0.867712 25.6305C0.774451 25.6555 0.695117 25.5591 0.737555 25.4724L2.89031 21.0733C2.96553 20.9196 2.91329 20.7366 2.7747 20.6443ZM6.2496 24.8877C6.37054 24.9647 6.49253 25.0397 6.61553 25.1126C9.28745 26.6968 12.4317 27.3147 15.5173 26.8484C18.8362 26.3469 21.8493 24.6268 23.9687 22.0239C26.0881 19.4209 27.1618 16.1218 26.9803 12.77C26.7988 9.41827 25.3751 6.25435 22.987 3.89548C20.599 1.53662 17.4177 0.152024 14.064 0.0118048C10.7103 -0.128414 7.42458 0.985802 4.84793 3.13709C2.27127 5.28838 0.588471 8.32242 0.127816 11.6473C-0.301432 14.7455 0.359193 17.8892 1.98428 20.5453C2.05989 20.6689 2.13758 20.7914 2.21735 20.9128L0.13126 25.1757C-0.165807 25.7827 0.389535 26.4574 1.04236 26.2825L6.2496 24.8877Z" fill="#31302E"/>
</svg>
