<svg width="60" height="60" viewBox="0 0 60 60" fill="none" xmlns="http://www.w3.org/2000/svg">
<path d="M37.3716 42.7084C37.1143 42.7076 36.8579 42.6796 36.6066 42.6247C31.823 41.6404 27.4161 39.3326 23.893 35.9668C20.4451 32.5937 18.0538 28.2989 17.0084 23.6022C16.8851 23.0169 16.9154 22.4098 17.0962 21.8395C17.2771 21.2691 17.6025 20.7546 18.0411 20.3456L21.1009 17.4161C21.2572 17.2691 21.4429 17.1565 21.6459 17.0857C21.8489 17.0149 22.0646 16.9875 22.2789 17.0052C22.5012 17.0283 22.7157 17.0995 22.9073 17.2139C23.099 17.3283 23.2631 17.483 23.3881 17.6672L27.2129 23.2903C27.3563 23.5084 27.4256 23.7667 27.4104 24.0269C27.3953 24.2872 27.2966 24.5357 27.1288 24.736L25.2087 27.0187C25.9734 28.7021 27.0564 30.2236 28.3986 31.5003C29.7322 32.8234 31.3084 33.8798 33.0419 34.6124L35.4209 32.733C35.6207 32.5759 35.8639 32.4831 36.118 32.4667C36.3722 32.4504 36.6253 32.5114 36.8437 32.6417L42.6192 36.3549C42.8174 36.4726 42.9862 36.6334 43.1131 36.8252C43.2399 37.017 43.3215 37.2349 43.3516 37.4626C43.3818 37.6902 43.3598 37.9217 43.2873 38.1397C43.2147 38.3577 43.0936 38.5565 42.9328 38.7213L39.9495 41.6583C39.6106 41.9938 39.2084 42.2592 38.7659 42.4394C38.3235 42.6196 37.8496 42.711 37.3716 42.7084ZM22.2789 18.1247L18.7068 21.3383C18.46 21.567 18.2774 21.8556 18.1768 22.1758C18.0762 22.496 18.0611 22.8367 18.133 23.1645C19.1051 27.5717 21.6042 31.8247 24.831 34.9959C28.1464 38.1624 32.5781 40.7334 37.0794 41.6583C37.4201 41.7292 37.7732 41.7148 38.1069 41.6166C38.4407 41.5183 38.7447 41.3392 38.9918 41.0953L42.2366 37.7274L36.118 33.7105L33.695 35.7993C33.5971 35.8763 33.4819 35.9283 33.3592 35.9509C33.2366 35.9734 33.1102 35.9658 32.9912 35.9286C30.8697 35.1511 28.9957 34.0276 27.4096 32.4251C25.769 30.9011 24.8365 29.3652 24.0252 27.2834C23.9908 27.1573 23.9897 27.0246 24.0218 26.898C24.054 26.7714 24.1184 26.6552 24.2087 26.5605L26.2814 24.0269L22.2789 18.1247Z" fill="#31302E"/>
<path fill-rule="evenodd" clip-rule="evenodd" d="M15.8082 50.1844C15.6562 49.9905 15.3933 49.9031 15.1461 49.9855L14.9821 50.0402L14.6539 50.1495L13.9977 50.3683L12.6852 50.8058L10.0602 51.6808L6.27352 52.943L8.02443 49.7914L9.27443 47.5414L9.89943 46.4164L10.2119 45.854L10.2119 45.8539L10.29 45.7133L10.3291 45.643C10.4901 45.3534 10.3858 44.9881 10.0961 44.8271C10.0591 44.8065 10.0209 44.7903 9.98198 44.7782C6.09555 40.0772 4.6629 32.6873 5.50541 26.6063C6.34922 20.5158 9.4317 14.9582 14.1515 11.0176C18.8713 7.07692 24.8899 5.03594 31.0332 5.29279C37.1764 5.54963 43.0036 8.08588 47.378 12.4068C51.7524 16.7276 54.3602 22.5232 54.6927 28.6628C55.0252 34.8024 53.0585 40.8457 49.1762 45.6136C45.294 50.3816 39.7748 53.5323 33.6952 54.451C27.7283 55.3527 21.2669 53.4152 15.8082 50.1844ZM15.2934 51.2013C21.3985 55.3428 27.5938 56.6588 33.8851 55.7081C40.2773 54.7421 46.0803 51.4294 50.1621 46.4163C54.2439 41.4032 56.3117 35.0493 55.9622 28.594C55.6126 22.1388 52.8707 16.0453 48.2714 11.5023C43.6721 6.95928 37.5453 4.29264 31.0863 4.02259C24.6272 3.75254 18.2992 5.89844 13.3367 10.0417C8.37428 14.1849 5.13332 20.0283 4.24613 26.4318C3.40493 32.5034 4.83667 40.2482 8.39696 45.0411C8.56682 45.2698 8.74153 45.4918 8.92106 45.7065L8.85044 45.8336L8.22544 46.9586L6.97544 49.2086L4.84999 53.0344C4.45137 53.7519 5.14265 54.5849 5.92133 54.3253L10.4397 52.8192L13.0647 51.9442L14.3772 51.5067L15.0334 51.288L15.2934 51.2013Z" fill="#31302E"/>
<path fill-rule="evenodd" clip-rule="evenodd" d="M6.16582 45.876C2.2247 40.0446 0.770175 33.0621 1.73694 26.0842C2.71056 19.0568 6.26726 12.6442 11.7132 8.0973C17.1591 3.55042 24.1036 1.19545 31.192 1.49181C38.2803 1.78818 45.004 4.71461 50.0514 9.70021C55.0987 14.6858 58.1077 21.373 58.4913 28.4571C58.875 35.5413 56.6057 42.5142 52.1262 48.0157C47.6467 53.5172 41.2784 57.1526 34.2635 58.2127C27.2965 59.2655 20.4986 57.9503 14.6211 54.0801C14.4471 53.8222 14.1227 53.6904 13.8053 53.7754L1.92833 56.9567C1.72109 57.0122 1.54479 56.798 1.6391 56.6053L6.423 46.8295C6.59019 46.4879 6.474 46.0812 6.16582 45.876ZM13.888 55.3061C14.1567 55.4772 14.4278 55.6438 14.7011 55.8058C20.6387 59.3261 27.6258 60.6993 34.4827 59.6631C41.8582 58.5485 48.554 54.7263 53.2637 48.9419C57.9735 43.1576 60.3594 35.8261 59.9561 28.3778C59.5527 20.9295 56.3891 13.8985 51.0822 8.6566C45.7753 3.41469 38.706 0.337806 31.2532 0.0262075C23.8005 -0.285391 16.499 2.19064 10.7731 6.97128C5.04716 11.7519 1.30761 18.4942 0.283932 25.8829C-0.669953 32.7678 0.798103 39.7538 4.40941 45.6562C4.57746 45.9309 4.75015 46.2032 4.92746 46.4731L0.291774 55.946C-0.368374 57.295 0.865716 58.7942 2.31644 58.4056L13.888 55.3061Z" fill="#31302E"/>
</svg>
